<svg xmlns="http://www.w3.org/2000/svg" id="Layer_1" data-name="Layer 1" viewBox="0 0 500 500"><defs><style>      .cls-1 {        fill: #01008c;        fill-rule: evenodd;        stroke-width: 0px;      }    </style></defs><path class="cls-1" d="M244.83,136.8c.63-.23,1.3-.35,2.01-.35,3.29,0,5.95,2.67,5.95,5.96v5.28c3.44-10.08,8.47-20.41,34.94-14.98-17.01,10.47-11.05,25.81-34.94,19.4v35.53h-11.9v-43.53c-18.57,3.26-14.53-10.69-30.34-20.43,24.84-5.09,30.8,3.7,34.29,13.14ZM331.77,134.93v-10.41c0-3.29,2.67-5.96,5.95-5.96.71,0,1.38.12,2.01.35,4.21-11.99,10.9-23.77,42.36-17.31-19.7,12.14-14.19,29.61-38.42,24.73v61.3h-11.9v-51.63c-30.75,8.76-22.94-10.35-44.04-23.35,35.85-7.35,39.54,8.95,44.04,22.28ZM96.83,347.43s.02.04.03.07c10.94,26.32,21.9,52.65,32.84,78.98.01.03.02.05.04.08l4.61,11.09c.49,1.18.49,2.38.02,3.56-.5,1.18-1.35,2.02-2.52,2.53h-.02s-24.8,10.3-24.8,10.3c-2.35.98-5.07-.15-6.05-2.49-13.99-33.68-28.02-67.36-42.01-101.04v-.02c-.51-1.18-.49-2.35-.02-3.52.49-1.18,1.33-2.03,2.51-2.52l24.82-10.32c2.36-.98,5.07.15,6.06,2.51,1.49,3.59,2.99,7.19,4.48,10.79ZM138.29,416.1c-9.42-22.66-18.85-45.31-28.27-67.96,12.3-5.82,24.58-11.68,36.8-17.67,14.02-6.87,24.92-12.01,37.79-10.27,8.59,1.16,17.96,5.38,29.68,13.71.58.41,1.22.71,1.91.9l46.8,12.55c8.5,2.28,13.6,11.12,11.33,19.63s-11.1,13.62-19.6,11.33h-.01s-62.19-16.68-62.19-16.68c-3.17-.85-6.44,1.04-7.29,4.22-.85,3.18,1.04,6.45,4.21,7.3l62.19,16.68c14.82,4,30.22-4.91,34.19-19.76.78-2.92,1.06-5.85.91-8.72l64.07-18.82c10.96-3.22,19.49-4.05,25.96-3.05,5.21.8,8.84,2.78,10.99,5.68,2.52,3.41,2.88,7.86,1.94,12.22-1.57,7.29-6.82,14.46-14.15,17.29l-96.86,37.38c-7.42,2.85-16.06,6.42-24.84,8.68-7.94,2.04-16,3.06-23.2.97l-51.6-14.99c-8.97-2.63-17.59-1.9-26.01,2.21l-14.73,7.18ZM204.33,268.03c-15.99-18.8-25.56-42.6-25.56-68.48h50.51l-24.95,68.48ZM241.95,199.55h17.87l-11.95,100.26c-12.85-5.45-24.47-13.01-34.36-22.2l28.44-78.06ZM271.81,199.55h18.42v109.85c-10.73-.51-21.08-2.36-30.87-5.39l12.45-104.46ZM302.14,199.55h18.69l13.02,104.2c-10.04,3.18-20.67,5.13-31.71,5.65v-109.85ZM332.82,199.55h17.83l28.38,77.9c-9.71,9.07-21.12,16.56-33.72,22.02l-12.49-99.91ZM363.33,199.55h50.27c0,25.79-9.49,49.52-25.39,68.28l-24.88-68.28ZM411.37,123.6c-23.24-39.48-66.15-66.01-115.19-66.01-73.73,0-133.6,59.95-133.6,133.79s59.87,133.79,133.6,133.79,127.65-54.16,133.17-122.93c.26-3.28,3.14-5.73,6.41-5.46,3.27.27,5.72,3.14,5.45,6.42-6.02,74.9-68.7,133.9-145.04,133.9-80.31,0-145.51-65.29-145.51-145.71S215.87,45.67,296.18,45.67c51.6,0,96.97,26.96,122.81,67.56l-.04-2.98c-.04-3.29,2.59-5.99,5.88-6.04,3.28-.04,5.98,2.59,6.03,5.88l.37,28.04c.03,2.13-1.08,4.11-2.91,5.2s-4.1,1.12-5.95.08l-24.44-13.7c-2.87-1.61-3.89-5.24-2.29-8.11s5.23-3.9,8.1-2.29l7.63,4.28Z"></path></svg>