<svg xmlns="http://www.w3.org/2000/svg" id="Layer_1" data-name="Layer 1" viewBox="0 0 500 500"><defs><style>      .cls-1 {        fill: #01008c;      }      .cls-1, .cls-2, .cls-3 {        stroke-width: 0px;      }      .cls-2, .cls-4 {        fill: none;      }      .cls-3 {        fill: #fff;      }      .cls-4 {        stroke: #01008c;        stroke-miterlimit: 10;        stroke-width: 2.95px;      }    </style></defs><rect class="cls-2" x="63.13" y="63.13" width="373.75" height="373.75"></rect><path class="cls-1" d="M436.87,250.15c0,3.06-.07,6.11-.22,9.17-.16,3.06-.38,6.1-.68,9.14-.3,3.05-.67,6.08-1.12,9.1-.46,3.02-.98,6.04-1.57,9.04s-1.27,5.99-2,8.95c-.75,2.97-1.57,5.91-2.45,8.84s-1.85,5.83-2.87,8.71c-1.03,2.88-2.13,5.73-3.31,8.56-1.17,2.82-2.4,5.62-3.71,8.39-1.31,2.76-2.68,5.49-4.13,8.19-1.44,2.69-2.95,5.36-4.52,7.98-1.57,2.63-3.21,5.21-4.9,7.75s-3.46,5.04-5.28,7.5-3.7,4.87-5.64,7.23-3.94,4.68-5.99,6.94c-2.05,2.27-4.17,4.48-6.33,6.64s-4.37,4.27-6.64,6.33-4.58,4.05-6.94,5.99c-2.37,1.94-4.78,3.82-7.23,5.64-2.46,1.82-4.96,3.59-7.5,5.28s-5.12,3.34-7.74,4.9c-2.63,1.57-5.28,3.08-7.99,4.52-2.69,1.44-5.43,2.82-8.19,4.13-2.76,1.31-5.56,2.54-8.38,3.72-2.82,1.17-5.67,2.27-8.56,3.3-2.88,1.04-5.78,1.99-8.71,2.88-2.93.89-5.88,1.7-8.85,2.44s-5.95,1.42-8.95,2.01-6.01,1.12-9.04,1.57-6.06.82-9.1,1.12c-3.04.31-6.1.53-9.14.68-3.06.15-6.11.22-9.17.22s-6.12-.07-9.17-.22c-3.06-.15-6.1-.37-9.15-.68-3.04-.3-6.07-.67-9.1-1.12-3.02-.45-6.03-.97-9.04-1.57-3-.6-5.98-1.27-8.95-2.01s-5.91-1.56-8.84-2.44c-2.92-.89-5.83-1.85-8.71-2.88-2.87-1.03-5.73-2.13-8.56-3.3-2.82-1.18-5.62-2.41-8.38-3.72s-5.49-2.68-8.19-4.13-5.36-2.95-7.98-4.52c-2.63-1.57-5.21-3.21-7.75-4.9s-5.04-3.46-7.5-5.28c-2.46-1.82-4.87-3.7-7.23-5.64-2.37-1.94-4.68-3.93-6.95-5.99-2.26-2.05-4.48-4.17-6.64-6.33s-4.27-4.37-6.32-6.64c-2.05-2.26-4.05-4.58-5.99-6.94-1.95-2.36-3.83-4.77-5.65-7.23s-3.58-4.95-5.28-7.5-3.34-5.13-4.91-7.75c-1.57-2.62-3.07-5.28-4.51-7.98-1.45-2.7-2.82-5.43-4.13-8.19-1.31-2.77-2.55-5.57-3.72-8.39s-2.27-5.67-3.31-8.56c-1.03-2.87-1.99-5.78-2.87-8.71s-1.71-5.87-2.44-8.84c-.75-2.97-1.42-5.96-2.01-8.95s-1.12-6.01-1.57-9.04-.82-6.06-1.13-9.1c-.3-3.04-.52-6.09-.67-9.14s-.22-6.11-.22-9.17.07-6.11.22-9.17.37-6.1.67-9.14c.31-3.05.68-6.08,1.13-9.1s.97-6.04,1.57-9.04,1.27-5.98,2.01-8.95c.74-2.97,1.56-5.91,2.44-8.84.89-2.92,1.85-5.83,2.87-8.71,1.04-2.88,2.14-5.73,3.31-8.56s2.41-5.62,3.72-8.39c1.31-2.76,2.68-5.49,4.13-8.19,1.44-2.69,2.95-5.35,4.51-7.98,1.57-2.63,3.21-5.21,4.91-7.75s3.45-5.04,5.28-7.5c1.82-2.45,3.7-4.86,5.65-7.23,1.94-2.36,3.93-4.68,5.99-6.94,2.05-2.27,4.16-4.48,6.32-6.64s4.38-4.27,6.64-6.33c2.27-2.05,4.58-4.05,6.95-5.99,2.36-1.94,4.77-3.82,7.23-5.64,2.45-1.82,4.95-3.59,7.5-5.28s5.13-3.34,7.75-4.9c2.62-1.57,5.28-3.08,7.98-4.52s5.43-2.82,8.19-4.13,5.56-2.54,8.38-3.72c2.82-1.17,5.68-2.27,8.56-3.3,2.88-1.04,5.79-1.99,8.71-2.88,2.92-.89,5.87-1.7,8.84-2.44s5.95-1.41,8.95-2c3.01-.6,6.01-1.13,9.04-1.57,3.03-.45,6.06-.82,9.1-1.12,3.05-.31,6.1-.53,9.15-.68,3.05-.15,6.1-.22,9.17-.22s6.11.07,9.17.22c3.05.15,6.1.37,9.14.68,3.04.3,6.08.67,9.1,1.12s6.04.97,9.04,1.57c3,.6,5.98,1.26,8.95,2s5.91,1.56,8.85,2.44c2.92.89,5.82,1.85,8.71,2.88,2.88,1.03,5.73,2.13,8.56,3.3,2.82,1.18,5.62,2.41,8.38,3.72,2.77,1.31,5.5,2.68,8.19,4.13,2.7,1.44,5.36,2.95,7.99,4.52,2.63,1.57,5.2,3.21,7.74,4.9s5.04,3.46,7.5,5.28c2.45,1.82,4.86,3.7,7.23,5.64,2.36,1.94,4.67,3.93,6.94,5.99s4.48,4.17,6.64,6.33,4.27,4.37,6.33,6.64c2.05,2.26,4.05,4.58,5.99,6.94,1.94,2.37,3.82,4.78,5.64,7.23,1.82,2.46,3.59,4.95,5.28,7.5s3.33,5.13,4.9,7.75,3.08,5.28,4.52,7.98c1.44,2.7,2.82,5.43,4.13,8.19,1.31,2.77,2.54,5.57,3.71,8.39,1.18,2.82,2.28,5.67,3.31,8.56,1.03,2.87,1.99,5.78,2.87,8.71.89,2.93,1.71,5.87,2.45,8.84.74,2.97,1.41,5.96,2,8.95s1.12,6.01,1.57,9.04c.45,3.02.82,6.06,1.12,9.1.3,3.04.52,6.09.68,9.14.15,3.06.22,6.11.22,9.17Z"></path><path class="cls-3" d="M306.51,301.95v-10.02c-3.06,1.72-6.28,3.22-9.49,4.56,1.86,2.17,3.36,4.63,4.41,7.25l5.09-1.79Z"></path><g><path class="cls-3" d="M309.76,236.47c1.79,0,3.29,1.49,3.29,3.29s-1.5,3.29-3.29,3.29h-107.57c2.62,10.24,7.55,19.73,14.28,27.81,6.65,1.19,13,3.66,18.76,7.25l2.84,1.8c4.03,2.53,8.67,4.18,13.45,4.7l29.38,3.36c3.66.45,7.17,1.65,10.31,3.59,13.3-4.48,24.89-12.93,33.27-24.14,5.38-7.33,9.34-15.62,11.65-24.44h-14.72c-1.8,0-3.29-1.5-3.29-3.29s1.49-3.29,3.29-3.29h16.07c.52-3.44.82-6.88.82-10.32v-1.34h-138.28v1.34c.07,3.45.3,6.96.82,10.32h108.91v.07Z"></path><path class="cls-3" d="M146.81,329.98l7.32-64.14,25.71,2.92-7.32,64.14-25.71-2.92Z"></path><path class="cls-3" d="M337.79,297.31h-.07l-34.68,12.71c.22,1.95.22,3.89,0,5.91-.22,1.65-1.57,2.92-3.21,2.92h-.37l-48.29-5.53c-1.8-.22-3.06-1.79-2.84-3.59.22-1.79,1.8-3.06,3.59-2.84l44.71,5.16c-.6-9.05-7.55-16.37-16.53-17.42l-29.37-3.36c-5.76-.67-11.29-2.62-16.14-5.67l-2.84-1.8c-14.21-9.05-32.22-9.57-46.87-1.34l-5.01,43.35,5.83-2.39c5.16-2.24,10.99-2.32,16.29-.37l48.74,18.38c9.49,2.84,19.73,2.62,29.07-.75l73.41-38.94c-3.51-4.94-9.87-6.65-15.4-4.42Z"></path><path class="cls-3" d="M238.82,205.15c1.8,0,3.29-1.5,3.29-3.29v-17.05c0-1.79-1.49-3.29-3.29-3.29s-3.29,1.5-3.29,3.29v17.05c0,1.79,1.5,3.29,3.29,3.29Z"></path><path class="cls-3" d="M257.96,205.15c1.8,0,3.29-1.5,3.29-3.29v-38.05c0-1.79-1.49-3.29-3.29-3.29s-3.29,1.5-3.29,3.29v38.05c0,1.79,1.5,3.29,3.29,3.29Z"></path><path class="cls-3" d="M277.62,205.15c1.79,0,3.29-1.5,3.29-3.29v-17.05c0-1.79-1.5-3.29-3.29-3.29s-3.3,1.5-3.3,3.29v17.05c0,1.79,1.42,3.29,3.3,3.29Z"></path><path class="cls-3" d="M299.52,205.15c1.79,0,3.29-1.5,3.29-3.29v-41.64c0-1.79-1.5-3.29-3.29-3.29s-3.29,1.5-3.29,3.29v41.64c.07,1.79,1.49,3.29,3.29,3.29Z"></path></g><rect class="cls-2" x="95.25" y="170.44" width="57.72" height="179.81"></rect><g><path class="cls-3" d="M151.46,170.63l-1.83,36.76c-.33,5.48-4.89,9.63-10.28,9.38-5.06-.17-9.04-4.32-9.37-9.38l-1.83-36.51h-2.82l-1.82,36.51c-.33,5.4-4.98,9.55-10.37,9.3-4.98-.33-9.04-4.32-9.29-9.38l-1.58-36.68h-2.57l-1.08,30.37c0,16.76,9.29,33.11,21.4,38.09,1.82.66,2.9,2.41,2.82,4.32l-4.81,98.01v.41c0,4.56,4.06,8.38,9.04,8.38,2.57,0,4.97-.99,6.8-2.9,1.49-1.58,2.4-3.65,2.32-5.98l-4.81-98.17c-.08-1.91.99-3.57,2.82-4.32,12.11-4.73,21.31-21.08,21.31-38.01l-1.08-30.37-2.99.17Z"></path><path class="cls-3" d="M383.32,173.21l-14.93,86.3.5.33c6.47,3.07,10.53,9.62,10.53,16.85v60.83c0,2.82,2.16,5.06,4.98,5.14h.08c2.65,0,4.89-2.49,4.89-5.14v-172.11c-3.23,1.41-5.47,4.4-6.05,7.8Z"></path></g><circle class="cls-4" cx="250" cy="250" r="196.5"></circle></svg>