<svg xmlns="http://www.w3.org/2000/svg" id="Layer_1" data-name="Layer 1" viewBox="0 0 500 500"><defs><style>      .cls-1 {        fill: #01008c;      }      .cls-1, .cls-2 {        stroke-width: 0px;      }      .cls-2 {        fill: none;      }    </style></defs><rect class="cls-2" x="45" y="96.5" width="410" height="307"></rect><path class="cls-1" d="M434.48,382.55v-179.16c0-10.21-8.35-18.55-18.58-18.55h-60.76v197.71h-8.14V114.9c0-10.19-8.37-18.55-18.57-18.55h-156.9c-10.2,0-18.57,8.35-18.57,18.55v267.67h-8.14v-197.72h-60.76c-10.22,0-18.58,8.34-18.58,18.55v179.16h-20.51v21.11h409.99v-21.11h-20.51ZM379.64,237.54c0-1.61,1.32-2.93,2.93-2.93h24.51c1.61,0,2.93,1.32,2.93,2.93v39.33c0,1.61-1.32,2.93-2.93,2.93h-24.51c-1.61,0-2.93-1.32-2.93-2.93v-39.33ZM379.64,312.74c0-1.61,1.32-2.93,2.93-2.93h24.51c1.61,0,2.93,1.32,2.93,2.93v39.33c0,1.61-1.32,2.92-2.93,2.92h-24.51c-1.61,0-2.93-1.3-2.93-2.92v-39.33ZM89.99,237.54c0-1.61,1.32-2.93,2.93-2.93h24.51c1.61,0,2.93,1.32,2.93,2.93v39.33c0,1.61-1.32,2.93-2.93,2.93h-24.51c-1.61,0-2.93-1.32-2.93-2.93v-39.33ZM89.99,312.74c0-1.61,1.32-2.93,2.93-2.93h24.51c1.61,0,2.93,1.32,2.93,2.93v39.33c0,1.61-1.32,2.92-2.93,2.92h-24.51c-1.61,0-2.93-1.3-2.93-2.92v-39.33ZM210.51,352.08c0,1.61-1.32,2.92-2.93,2.92h-24.51c-1.61,0-2.93-1.3-2.93-2.92v-39.33c0-1.61,1.32-2.93,2.93-2.93h24.51c1.61,0,2.93,1.32,2.93,2.93v39.33ZM210.51,276.88c0,1.61-1.32,2.93-2.93,2.93h-24.51c-1.61,0-2.93-1.32-2.93-2.93v-39.33c0-1.61,1.32-2.93,2.93-2.93h24.51c1.61,0,2.93,1.32,2.93,2.93v39.33ZM270.01,382.55h-40.03v-68.87c0-2.14,1.73-3.86,3.87-3.86h32.29c2.14,0,3.87,1.72,3.87,3.86v68.87ZM234.8,276.88v-39.33c0-1.61,1.32-2.93,2.94-2.93h24.52c1.61,0,2.93,1.32,2.93,2.93v39.33c0,1.61-1.32,2.93-2.93,2.93h-24.52c-1.61,0-2.94-1.32-2.94-2.93ZM271.83,178.24c-2.91,0-5.27,2.37-5.27,5.24v16.64c0,2.89-2.37,5.26-5.27,5.26h-22.6c-2.9,0-5.27-2.37-5.27-5.26v-16.64c0-2.88-2.35-5.24-5.27-5.24h-16.96c-2.91,0-5.27-2.36-5.27-5.26v-21.29c0-2.89,2.36-5.24,5.27-5.24h16.96c2.91,0,5.27-2.38,5.27-5.26v-16.48c0-2.89,2.37-5.26,5.27-5.26h22.6c2.9,0,5.27,2.36,5.27,5.26v16.48c0,2.89,2.35,5.26,5.27,5.26h16.96c2.91,0,5.27,2.35,5.27,5.24v21.29c0,2.89-2.36,5.26-5.27,5.26h-16.96ZM319.86,352.08c0,1.61-1.32,2.92-2.93,2.92h-24.51c-1.61,0-2.94-1.3-2.94-2.92v-39.33c0-1.61,1.32-2.93,2.94-2.93h24.51c1.61,0,2.93,1.32,2.93,2.93v39.33ZM319.86,276.88c0,1.61-1.32,2.93-2.93,2.93h-24.51c-1.61,0-2.94-1.32-2.94-2.93v-39.33c0-1.61,1.32-2.93,2.94-2.93h24.51c1.61,0,2.93,1.32,2.93,2.93v39.33Z"></path></svg>