<svg xmlns="http://www.w3.org/2000/svg" xmlns:xlink="http://www.w3.org/1999/xlink" id="Layer_1" data-name="Layer 1" viewBox="0 0 500 500"><defs><style>      .cls-1, .cls-2, .cls-3 {        fill: #01008c;      }      .cls-1, .cls-3 {        stroke-width: 0px;      }      .cls-3 {        fill-rule: evenodd;      }      .cls-4 {        clip-path: url(#clippath);      }    </style><clipPath id="clippath"><rect class="cls-1" x="45" y="390.99" width="410" height="30"></rect></clipPath></defs><path class="cls-3" d="M194.71,202.49v-4.92c0-12.23,9.96-22.19,22.18-22.19h66.3c12.22,0,22.18,9.95,22.18,22.19v4.92h-110.67Z"></path><path class="cls-3" d="M234.08,382.14v-27.39h31.92v27.39h-31.92ZM245.47,378.24c-2.65,0-4.8-2.16-4.8-4.81v-9.98c0-2.65,2.15-4.81,4.8-4.81s4.81,2.16,4.81,4.81v9.98c0,2.65-2.16,4.81-4.81,4.81Z"></path><path class="cls-3" d="M275.59,382.14v-32.2c0-2.65-2.15-4.8-4.8-4.8h-41.52c-2.65,0-4.81,2.15-4.81,4.8v32.2h-29.77v-170.04h110.67v170.04h-29.78ZM239.62,254.64h-21.56c-2.66,0-4.81-2.15-4.81-4.81v-21.57c0-2.66,2.15-4.8,4.81-4.8h21.56c2.65,0,4.8,2.15,4.8,4.8v21.57c0,2.66-2.15,4.81-4.8,4.81ZM222.86,245.03h11.96v-11.97h-11.96v11.97ZM282.02,254.64h-21.56c-2.65,0-4.81-2.15-4.81-4.81v-21.57c0-2.66,2.16-4.8,4.81-4.8h21.56c2.65,0,4.81,2.15,4.81,4.8v21.57c0,2.66-2.16,4.81-4.81,4.81ZM265.26,245.03h11.96v-11.97h-11.96v11.97ZM239.62,293.76h-21.56c-2.66,0-4.81-2.16-4.81-4.8v-21.58c0-2.65,2.15-4.81,4.81-4.81h21.56c2.65,0,4.8,2.16,4.8,4.81v21.58c0,2.65-2.15,4.8-4.8,4.8ZM222.86,284.15h11.96v-11.96h-11.96v11.96ZM282.02,293.76h-21.56c-2.65,0-4.81-2.16-4.81-4.8v-21.58c0-2.65,2.16-4.81,4.81-4.81h21.56c2.65,0,4.81,2.16,4.81,4.81v21.58c0,2.65-2.16,4.8-4.81,4.8ZM265.26,284.15h11.96v-11.96h-11.96v11.96ZM239.62,332.89h-21.56c-2.66,0-4.81-2.15-4.81-4.8v-21.58c0-2.65,2.15-4.81,4.81-4.81h21.56c2.65,0,4.8,2.16,4.8,4.81v21.58c0,2.65-2.15,4.8-4.8,4.8ZM222.86,323.28h11.96v-11.97h-11.96v11.97ZM282.02,332.89h-21.56c-2.65,0-4.81-2.15-4.81-4.8v-21.58c0-2.65,2.16-4.81,4.81-4.81h21.56c2.65,0,4.81,2.16,4.81,4.81v21.58c0,2.65-2.16,4.8-4.81,4.8ZM265.26,323.28h11.96v-11.97h-11.96v11.97Z"></path><path class="cls-3" d="M314.99,382.14v-139.14h69.9c2.66,0,4.8,2.15,4.8,4.8v134.34h-74.7ZM363.12,289.03h-21.56c-2.66,0-4.81-2.15-4.81-4.8v-21.58c0-2.65,2.15-4.8,4.81-4.8h21.56c2.65,0,4.81,2.15,4.81,4.8v21.58c0,2.65-2.16,4.8-4.81,4.8ZM346.36,279.43h11.96v-11.97h-11.96v11.97ZM363.12,328.16h-21.56c-2.66,0-4.81-2.15-4.81-4.8v-21.58c0-2.65,2.15-4.8,4.81-4.8h21.56c2.65,0,4.81,2.15,4.81,4.8v21.58c0,2.65-2.16,4.8-4.81,4.8ZM346.36,318.55h11.96v-11.96h-11.96v11.96ZM363.12,367.28h-21.56c-2.66,0-4.81-2.15-4.81-4.8v-21.57c0-2.66,2.15-4.8,4.81-4.8h21.56c2.65,0,4.81,2.15,4.81,4.8v21.57c0,2.66-2.16,4.8-4.81,4.8ZM346.36,357.67h11.96v-11.96h-11.96v11.96Z"></path><path class="cls-3" d="M110.39,382.14v-134.34c0-2.65,2.15-4.8,4.8-4.8h69.9v139.14h-74.7ZM158.53,289.03h-21.56c-2.65,0-4.8-2.15-4.8-4.8v-21.58c0-2.65,2.15-4.8,4.8-4.8h21.56c2.65,0,4.8,2.15,4.8,4.8v21.58c0,2.65-2.15,4.8-4.8,4.8ZM141.76,279.43h11.96v-11.97h-11.96v11.97ZM158.53,328.16h-21.56c-2.65,0-4.8-2.15-4.8-4.8v-21.58c0-2.65,2.15-4.8,4.8-4.8h21.56c2.65,0,4.8,2.15,4.8,4.8v21.58c0,2.65-2.15,4.8-4.8,4.8ZM141.76,318.55h11.96v-11.96h-11.96v11.96ZM158.53,367.28h-21.56c-2.65,0-4.8-2.15-4.8-4.8v-21.57c0-2.66,2.15-4.8,4.8-4.8h21.56c2.65,0,4.8,2.15,4.8,4.8v21.57c0,2.66-2.15,4.8-4.8,4.8ZM141.76,357.67h11.96v-11.96h-11.96v11.96Z"></path><g><rect class="cls-2" x="45" y="390.99" width="410" height="30"></rect><g class="cls-4"><path class="cls-3" d="M450.14,421.04H49.94c-2.66,0-4.81-2.16-4.81-4.8v-9.84c0-8.08,6.57-14.64,14.64-14.64h380.53c8.07,0,14.64,6.56,14.64,14.64v9.84c0,2.65-2.16,4.8-4.81,4.8Z"></path></g></g><path class="cls-3" d="M262.76,160.04c-.96,0-1.92-.29-2.74-.87l-12.95-9.05-12.95,9.05c-1.71,1.2-3.98,1.16-5.64-.09s-2.32-3.42-1.66-5.4l4.87-14.27-12.77-8.85c-1.73-1.2-2.47-3.38-1.85-5.39.64-2.01,2.48-3.36,4.58-3.36h.01l15.98.02,4.86-14.44c.66-1.95,2.49-3.27,4.56-3.27s3.89,1.32,4.55,3.27l4.86,14.44,15.98-.02h.01c2.09,0,3.95,1.36,4.58,3.36.63,2.01-.12,4.18-1.85,5.39l-12.76,8.85,4.87,14.27c.67,1.97,0,4.15-1.66,5.4-.86.64-1.88.96-2.9.96ZM203.65,147.49c-.96,0-1.92-.29-2.76-.86l-12.95-9.06-12.95,9.06c-1.7,1.18-3.97,1.15-5.64-.1-1.66-1.25-2.32-3.42-1.65-5.4l4.86-14.27-12.76-8.85c-1.72-1.2-2.47-3.39-1.84-5.39.63-2.01,2.48-3.37,4.58-3.37h.01l15.97.03,4.87-14.44c.66-1.96,2.49-3.27,4.55-3.27s3.9,1.31,4.55,3.27l4.86,14.44,15.98-.03h.01c2.1,0,3.95,1.36,4.58,3.37.63,2-.12,4.18-1.85,5.39l-12.76,8.85,4.87,14.27c.68,1.97,0,4.14-1.66,5.39-.85.64-1.86.97-2.89.97ZM326.97,134.93c-.96,0-1.93-.29-2.75-.86l-12.95-9.06-12.95,9.06c-1.7,1.19-3.97,1.16-5.64-.1-1.67-1.25-2.33-3.42-1.66-5.39l4.87-14.28-12.77-8.85c-1.72-1.19-2.47-3.38-1.84-5.39.63-2,2.48-3.36,4.58-3.36h.01l15.98.03,4.86-14.45c.66-1.95,2.49-3.27,4.55-3.27s3.89,1.31,4.55,3.27l4.88,14.45,15.97-.03h0c2.1,0,3.96,1.36,4.58,3.36.64,2.01-.12,4.19-1.84,5.39l-12.76,8.86,4.86,14.27c.67,1.96,0,4.15-1.66,5.39-.85.65-1.86.97-2.88.97ZM352.61,172.6c-1.02,0-2.03-.32-2.89-.97-1.66-1.24-2.32-3.42-1.66-5.39l4.87-14.27-12.77-8.86c-1.73-1.19-2.47-3.38-1.85-5.39.64-2.01,2.48-3.36,4.58-3.36h.01l15.98.03,4.86-14.45c.66-1.95,2.49-3.27,4.56-3.27s3.89,1.32,4.55,3.27l4.86,14.45,15.98-.03h0c2.1,0,3.95,1.36,4.58,3.36.63,2.01-.12,4.19-1.85,5.39l-12.76,8.86,4.87,14.27c.67,1.96,0,4.14-1.66,5.39-1.67,1.26-3.94,1.29-5.64.1l-12.95-9.05-12.95,9.05c-.83.58-1.79.86-2.75.86ZM116.07,185.16c-1.02,0-2.04-.32-2.89-.97-1.66-1.24-2.32-3.42-1.66-5.39l4.88-14.27-12.77-8.85c-1.73-1.2-2.47-3.38-1.85-5.39.64-2,2.49-3.36,4.58-3.36h.02l15.97.03,4.87-14.45c.66-1.96,2.48-3.27,4.55-3.27s3.89,1.31,4.55,3.27l4.86,14.45,15.98-.03h0c2.1,0,3.95,1.36,4.58,3.36.63,2.02-.12,4.19-1.85,5.39l-12.76,8.85,4.87,14.27c.67,1.96,0,4.15-1.66,5.39-1.66,1.25-3.93,1.29-5.64.1l-12.95-9.06-12.95,9.06c-.83.58-1.79.87-2.75.87Z"></path></svg>