<svg xmlns="http://www.w3.org/2000/svg" id="Layer_1" data-name="Layer 1" viewBox="0 0 500 500"><defs><style>      .cls-1 {        fill: #01008c;      }      .cls-1, .cls-2 {        stroke-width: 0px;      }      .cls-2 {        fill: none;      }    </style></defs><path class="cls-1" d="M137.22,155.21v-13.66h20.49c3.77,0,6.83-3.06,6.83-6.83v-20.49h13.66v20.49c0,3.77,3.06,6.83,6.83,6.83h20.49v13.66h-20.49c-3.78,0-6.83,3.06-6.83,6.83v20.49h-13.66v-20.49c0-3.77-3.06-6.83-6.83-6.83h-20.49ZM150.88,189.37c0,3.77,3.06,6.83,6.83,6.83h27.32c3.77,0,6.83-3.06,6.83-6.83v-20.49h20.49c3.78,0,6.83-3.06,6.83-6.83v-27.32c0-3.77-3.06-6.83-6.83-6.83h-20.49v-20.49c0-3.77-3.06-6.83-6.83-6.83h-27.32c-3.78,0-6.83,3.06-6.83,6.83v20.49h-20.49c-3.77,0-6.83,3.06-6.83,6.83v27.32c0,3.77,3.06,6.83,6.83,6.83h20.49v20.49"></path><path class="cls-1" d="M103.07,98.52l61.47-22.35v10.74h13.66v-10.74l61.47,22.35v38.22c0,41.62-24.34,79.43-61.47,97.01v-23.9h-13.66v23.9c-37.14-17.58-61.47-55.39-61.47-97.01v-38.22ZM169.04,250.43c.76.28,1.55.41,2.34.41s1.58-.14,2.33-.41c47.63-17.32,79.63-63.01,79.63-113.69v-43.01c0-2.87-1.8-5.43-4.49-6.42l-75.14-27.32c-1.51-.55-3.16-.55-4.67,0l-75.14,27.32c-2.7.98-4.49,3.55-4.49,6.42v43.01c0,50.68,32,96.36,79.63,113.69"></path><rect class="cls-2" x="45" y="111.77" width="410" height="328.65"></rect><path class="cls-1" d="M421.47,413.1h-110.71c-8.77,0-16.22-5.74-18.8-13.66h135.64v-13.66h-136.61v-34.16h150.27v41.7c0,10.91-8.88,19.78-19.78,19.78ZM290.98,255.99h150.27v81.97h-150.27v-81.97ZM310.76,208.18h110.71c10.91,0,19.78,8.87,19.78,19.78v14.38h-150.27v-14.38c0-10.91,8.87-19.78,19.78-19.78ZM331.96,167.19h68.31v27.32h-68.31v-27.32ZM318.31,126.21h13.66v27.32h-13.66v-27.32ZM345.63,153.53v-27.32h13.66v27.32h-13.66ZM413.93,153.53h-13.66v-13.66h-13.66v13.66h-13.66v-27.32h40.98v27.32ZM268.64,302.63l-28.98,28.98-38.64-38.65,28.98-28.98c5.16-5.16,12.02-8,19.32-8s14.16,2.84,19.32,8c5.16,5.17,8,12.03,8,19.32s-2.84,14.16-8,19.32ZM181.69,426.75h-40.98v-54.64h40.98c15.07,0,27.32,12.26,27.32,27.32s-12.26,27.32-27.32,27.32ZM58.74,399.43c0-15.07,12.26-27.32,27.32-27.32h40.98v54.64h-40.98c-15.06,0-27.32-12.26-27.32-27.32ZM162.37,331.61l28.98-28.98,38.64,38.64-24.69,24.69c-1.92-1.35-3.95-2.56-6.09-3.57l16.29-16.29-9.66-9.66-19.32,19.32,3.55,3.55c-2.71-.56-5.51-.86-8.39-.86h-26.27c-2.68-9.42-.11-19.78,6.95-26.84ZM421.47,194.52h-7.54v-27.32h6.83c3.78,0,6.83-3.06,6.83-6.83v-40.98c0-3.77-3.06-6.83-6.83-6.83h-109.29c-3.77,0-6.83,3.06-6.83,6.83v40.98c0,3.77,3.06,6.83,6.83,6.83h6.83v27.32h-7.55c-18.44,0-33.44,15-33.44,33.44v25.45c-7.62-7.15-17.51-11.08-28.01-11.08s-21.24,4.27-28.98,12.01l-67.62,67.61c-9.66,9.66-13.7,23.44-11.3,36.5h-55.35c-22.6,0-40.98,18.39-40.98,40.98s18.39,40.98,40.98,40.98h95.63c22.6,0,40.98-18.38,40.98-40.98,0-8.89-2.85-17.12-7.68-23.84l62.33-62.33v80.05c0,18.44,14.99,33.44,33.44,33.44h110.71c18.44,0,33.44-14.99,33.44-33.44v-165.36c0-18.44-15-33.44-33.44-33.44"></path><path class="cls-1" d="M393.44,290.14h-20.49v-20.49h-13.66v20.49h-20.49v13.66h20.49v20.49h13.66v-20.49h20.49v-13.66"></path><path class="cls-1" d="M234.82,307.47l9.66,9.66,19.32-19.32-9.66-9.66-19.32,19.32"></path></svg>