<svg xmlns="http://www.w3.org/2000/svg" xmlns:xlink="http://www.w3.org/1999/xlink" id="Layer_1" data-name="Layer 1" viewBox="0 0 800 800"><defs><style>      .cls-1 {        fill: #01008c;        fill-rule: evenodd;      }      .cls-1, .cls-2 {        stroke-width: 0px;      }      .cls-2 {        fill: none;      }      .cls-3 {        clip-path: url(#clippath);      }    </style><clipPath id="clippath"><rect class="cls-2" x="196.06" y="195.18" width="407.88" height="409.64"></rect></clipPath></defs><path class="cls-1" d="M399.34,522.19c-66.51,0-120.77-54.26-120.77-120.77s54.26-121.01,120.77-121.01,121.01,54.5,121.01,121.01-54.26,120.77-121.01,120.77ZM399.34,292.18c-60.27,0-109.24,48.98-109.24,109.24s48.98,109.24,109.24,109.24,109.24-48.98,109.24-109.24-48.98-109.24-109.24-109.24Z"></path><path class="cls-1" d="M378.45,466.72c-.96,0-2.16-.48-3.12-.72-.24-.24-.48-.72-1.2-.96l-21.37-21.13-29.53-29.53c-8.16-8.4-8.16-21.61,0-29.53,8.16-8.16,21.61-8.16,29.53,0l25.69,25.45,67.47-68.19c4.08-4.08,9.12-6,14.65-6s10.8,1.92,14.64,6c4.08,4.08,6.48,9.36,6.48,14.89s-2.4,10.8-6.48,14.65l-92.91,93.4c-.24.24-.96.72-1.2.96-.72.24-1.68.72-2.4.72h-.24ZM338.12,390.38c-2.4,0-5.04.96-6.72,2.64-3.36,3.36-3.36,9.36.48,12.96l46.58,46.34,88.83-88.83c1.68-1.68,2.64-4.08,2.64-6.48,0-2.64-.96-4.8-2.64-6.48-3.36-3.36-9.36-3.36-12.96,0l-72.03,72.27c-2.16,2.16-6.01,2.16-8.16,0-.48-.48-.72-.72-.96-1.2l-28.33-28.57c-1.68-1.92-4.32-2.64-6.72-2.64Z"></path><g class="cls-3"><path class="cls-1" d="M400.3,604.78c-10.8,0-19.45-8.16-28.33-16.56-6.01-5.77-11.77-11.77-17.77-13.45-5.76-1.2-14.16.72-22.08,2.88-12.01,2.89-24.25,5.77-34.58.24-10.32-6.01-13.92-18.25-17.29-30.26-2.4-8.16-4.8-16.08-8.64-20.17-4.08-3.84-12.48-6.48-20.41-8.89-11.29-3.36-23.29-6.72-28.57-16.32s-2.4-21.37.72-32.89c1.92-7.93,4.32-16.09,2.64-21.61-1.44-5.52-7.44-11.29-12.96-17.29-8.4-8.41-18.01-18.01-16.81-30.49-1.2-12,8.41-21.6,16.81-30.25,5.52-5.52,11.53-11.53,13.21-17.29,1.44-5.28-.72-13.68-2.64-21.61-3.13-11.28-6.24-23.29-.72-32.65,5.28-9.6,17.29-12.96,28.57-16.32,8.16-2.4,16.32-4.56,20.41-8.89,4.08-4.08,6.24-12.48,8.65-20.17,3.36-12.01,6.96-24.25,17.29-30.26,10.32-6,22.81-2.88,34.57,0,8.16,1.92,16.32,4.08,22.09,2.65,5.76-1.2,12-7.2,18.01-13.21,8.64-8.4,17.29-16.81,28.33-16.81s19.69,8.65,27.85,17.05c6,5.77,12,12.01,17.29,13.45,5.76,1.2,13.68-.72,21.6-2.64,11.53-3.13,23.53-6.48,33.14-.72,9.6,5.29,12.96,16.81,16.32,28.33,2.16,7.92,4.56,16.32,8.89,20.17,4.32,4.32,12.48,6.72,20.41,9.13,12.01,3.36,24.25,6.96,30.01,17.29,5.53,9.84,2.65,22.57-.48,34.57-1.92,7.92-3.84,16.32-2.64,22.09,1.68,5.52,7.68,11.76,13.45,17.77,8.16,8.89,16.8,17.53,16.56,28.33.24,11.05-8.4,20.17-16.56,28.81-5.77,6.01-11.77,12.24-13.45,17.77-1.2,5.77.72,14.17,2.64,22.09,3.13,12.01,6.01,24.25.48,34.57-6,10.32-18.48,14.17-30.49,17.29-7.92,2.4-15.84,4.8-19.93,8.65-4.32,4.32-6.72,12.72-8.89,20.65-3.36,11.53-6.72,23.05-16.32,28.81-9.6,5.28-21.37,2.16-33.14-.72-7.92-1.92-15.84-4.32-21.6-2.65-5.53,1.2-11.53,7.2-17.29,13.21-8.65,7.68-17.29,16.32-28.33,16.32ZM349.88,563c2.64,0,4.8.24,7.2.96,8.64,2.16,16.08,9.13,23.05,15.84,6.96,6.72,13.93,13.69,20.17,13.45,6.48,0,13.45-6.96,20.17-13.69,6.96-6.96,13.93-13.92,22.57-16.32,8.65-2.4,18.25.24,27.61,2.64,8.88,2.4,18.72,5.04,24.01,1.92,5.29-2.88,7.93-12.48,10.57-21.6,2.64-9.6,5.76-19.21,12.01-25.69,6.24-6,15.6-8.64,24.97-11.28,9.6-2.64,19.93-5.53,23.29-12.01,3.36-6.01.96-16.33-1.2-25.93-2.4-9.36-4.8-19.2-2.64-27.61,2.16-8.64,9.12-16.08,16.32-23.05,6.48-6.96,13.45-13.93,13.2-20.17v-.48c.24-6.24-6.72-13.2-13.2-20.17-6.72-6.96-14.17-14.41-16.32-23.05-2.4-8.65.24-18.25,2.64-27.85,2.16-9.84,4.8-20.17,1.2-26.17-3.6-6.24-13.68-8.89-23.29-12.01-9.36-2.64-18.97-5.52-25.21-11.53-6.48-6.24-9.36-16.08-12-25.69-2.65-8.89-5.29-18.24-10.81-21.37-5.52-2.88-14.89-.48-24.25,1.68-9.36,2.4-18.96,5.04-27.61,2.64-8.64-2.16-15.6-9.13-22.57-16.32-6.72-6.48-13.69-13.45-19.69-13.45s-13.44,6.48-19.93,13.2c-6.96,6.96-14.41,13.93-23.29,16.09-8.41,2.16-18.49-.48-27.61-2.4-9.84-2.4-20.17-5.04-26.17-1.44-6.24,3.84-9.13,13.69-12.01,23.29-2.64,9.36-5.28,18.72-11.29,24.97-6.24,6.48-15.84,9.36-25.45,12.01-9.36,2.64-18.73,5.52-22.09,11.04-2.88,5.28-.72,15.13,1.68,24.01,2.4,9.36,5.04,18.97,2.64,27.61-2.4,8.65-9.36,15.61-16.33,22.33-7.2,7.44-14.41,14.65-13.2,21.37v1.68c-1.2,6.96,6,13.92,13.44,21.6,6.72,6.96,13.69,13.93,16.09,22.33,2.4,8.65-.24,18.25-2.64,27.61-2.4,8.88-5.04,18.72-1.92,24.01,2.88,5.53,12.48,8.17,21.85,11.05,9.36,2.64,18.96,5.52,25.45,11.77,5.76,6.48,8.89,15.84,11.53,24.97,2.64,9.84,5.76,20.17,12.01,23.53,6,3.12,16.32.96,25.93-1.44,7.68-1.44,14.65-2.89,21.13-2.89Z"></path></g></svg>