<svg xmlns="http://www.w3.org/2000/svg" xmlns:xlink="http://www.w3.org/1999/xlink" id="Layer_1" data-name="Layer 1" viewBox="0 0 800 800"><defs><style>      .cls-1 {        fill: #01008c;      }      .cls-1, .cls-2 {        stroke-width: 0px;      }      .cls-2 {        fill: none;      }      .cls-3 {        clip-path: url(#clippath);      }    </style><clipPath id="clippath"><rect class="cls-2" x="332.58" y="216.68" width="134.67" height="138.74"></rect></clipPath></defs><path class="cls-1" d="M500.98,497.65c-2.83,0-5.19-2.24-5.29-5.11-.11-2.92,2.18-5.38,5.1-5.48.22,0,22.63-.99,41.66-12.5,2.51-1.52,5.76-.71,7.28,1.79,1.52,2.51.71,5.76-1.8,7.28-21.46,12.97-45.74,13.98-46.76,14.02h-.19Z"></path><path class="cls-1" d="M270.45,491.72c-1.35,0-2.72-.52-3.74-1.55l-13.28-13.28c-2.07-2.07-2.07-5.43,0-7.49s5.43-2.07,7.5,0l13.28,13.28c2.07,2.07,2.07,5.43,0,7.5-1.04,1.04-2.4,1.55-3.75,1.55Z"></path><path class="cls-1" d="M370.74,583.32c-6.71,0-13.43-2.56-18.55-7.67l-8.71-8.71c-2.07-2.07-2.07-5.43,0-7.5,2.07-2.07,5.43-2.07,7.49,0l8.72,8.71c6.09,6.1,16.01,6.09,22.11,0,2.95-2.94,4.58-6.86,4.58-11.05,0-2.03-.39-4.01-1.15-5.89-.78-1.93-1.93-3.67-3.43-5.17-2.07-2.07-2.07-5.43,0-7.5,2.07-2.07,5.43-2.07,7.5,0l19.4,19.4c2.95,2.95,6.89,4.58,11.05,4.58s8.1-1.63,11.05-4.58,4.58-6.89,4.58-11.06-1.63-8.1-4.57-11.05c-2.07-2.07-2.07-5.43,0-7.5,2.07-2.07,5.43-2.07,7.49,0,4.95,4.95,7.68,11.54,7.68,18.55s-2.73,13.6-7.68,18.56c-4.96,4.95-11.54,7.68-18.55,7.68s-13.59-2.73-18.55-7.68l-4.5-4.5c-.81,5.57-3.37,10.69-7.42,14.72-5.11,5.12-11.83,7.67-18.55,7.67Z"></path><path class="cls-1" d="M457.87,552.02c-6.71,0-13.43-2.56-18.55-7.67l-47.66-47.67c-2.07-2.07-2.07-5.43,0-7.49,2.07-2.07,5.43-2.07,7.49,0l47.67,47.66c6.09,6.1,16.01,6.1,22.11,0,6.1-6.09,6.1-16.01,0-22.11l-47.66-47.67c-2.07-2.07-2.07-5.43,0-7.49,2.07-2.07,5.43-2.07,7.49,0l47.67,47.66c10.23,10.23,10.23,26.88,0,37.1-5.13,5.13-11.84,7.68-18.56,7.68Z"></path><path class="cls-1" d="M480.32,515.27c-6.72,0-13.43-2.56-18.54-7.67-2.07-2.07-2.07-5.43,0-7.49s5.43-2.07,7.5,0c6.1,6.09,16.01,6.09,22.1,0,2.34-2.35,3.86-5.32,4.38-8.58,0-.04,0-.06.02-.1.13-.73.19-1.53.19-2.39,0-4.17-1.63-8.1-4.58-11.06l-75.68-75.68c-5.46-5.46-13.46-7.55-20.9-5.46-3.82,1.07-7.25,3.18-9.92,6.09l-23.59,25.61c-.05.06-.1.1-.15.16-5.41,5.41-12.6,8.4-20.25,8.4s-14.85-2.98-20.26-8.4c-8.97-8.97-11.01-22.52-5.05-33.68,7.58-14.26,20.69-33.82,40.13-46.05.07-.05.14-.08.21-.13,15.98-10,33.49-13.37,52.04-10,2.82.41,41.27,6.32,71.47,26.99l30.95-13.39c2.69-1.16,5.81.07,6.97,2.76,1.16,2.68-.07,5.8-2.76,6.96l-33.68,14.56c-1.71.75-3.7.53-5.21-.57-28.91-20.91-68.95-26.8-69.35-26.85-.07-.01-.14-.02-.2-.04-15.97-2.92-31.04-.01-44.78,8.65-.07.04-.13.08-.2.12-17.36,11.02-29.28,28.89-36.23,41.95-3.74,7.04-2.46,15.56,3.19,21.21,3.4,3.4,7.94,5.28,12.76,5.28s9.29-1.85,12.69-5.22l23.51-25.53c3.99-4.35,9.13-7.49,14.84-9.11,11.12-3.14,23.1,0,31.27,8.17l75.68,75.68c4.96,4.97,7.68,11.56,7.68,18.56,0,1.45-.12,2.86-.35,4.19-.88,5.46-3.4,10.42-7.33,14.36-5.11,5.11-11.84,7.67-18.56,7.67Z"></path><path class="cls-1" d="M287.4,365.22c-2.42,0-4.6-1.66-5.16-4.12-.66-2.85,1.13-5.7,3.99-6.35,33.22-7.57,70.7-6.66,72.43-6.61,2.88.07,5.18,2.41,5.18,5.3s-2.46,5.39-5.45,5.3c-1.54-.04-37.81-.95-69.81,6.35-.4.08-.79.13-1.19.13Z"></path><path class="cls-1" d="M282.33,512.03c-4.85,0-9.7-1.85-13.39-5.54-3.58-3.58-5.55-8.34-5.55-13.39s1.97-9.82,5.55-13.39l16.13-16.13c3.58-3.58,8.33-5.55,13.39-5.55s9.82,1.97,13.39,5.55c7.38,7.38,7.38,19.4,0,26.78-2.07,2.07-5.43,2.07-7.5,0s-2.07-5.43,0-7.5c3.25-3.25,3.25-8.54,0-11.79-1.57-1.57-3.67-2.44-5.9-2.44s-4.32.86-5.9,2.44l-16.13,16.13c-1.57,1.57-2.44,3.66-2.44,5.89s.86,4.33,2.44,5.9c3.25,3.24,8.54,3.24,11.79,0,2.07-2.07,5.43-2.07,7.5,0,2.07,2.07,2.07,5.43,0,7.5-3.68,3.69-8.53,5.54-13.38,5.54Z"></path><path class="cls-1" d="M295.88,537.05c-4.85,0-9.7-1.85-13.39-5.54s-5.55-8.33-5.55-13.39,1.97-9.82,5.55-13.39l21.88-21.87c3.58-3.58,8.32-5.55,13.39-5.55s9.82,1.97,13.39,5.55c7.38,7.38,7.38,19.4,0,26.78-2.07,2.07-5.43,2.07-7.5,0s-2.07-5.43,0-7.5c3.24-3.25,3.24-8.54,0-11.79-1.57-1.57-3.67-2.44-5.9-2.44s-4.31.86-5.9,2.44l-21.87,21.87c-1.57,1.57-2.44,3.67-2.44,5.9s.86,4.31,2.44,5.9c3.24,3.25,8.54,3.25,11.79,0,2.07-2.07,5.43-2.07,7.5,0,2.07,2.07,2.07,5.43,0,7.5-3.68,3.69-8.54,5.53-13.38,5.53Z"></path><path class="cls-1" d="M308.79,562.68c-4.85,0-9.7-1.85-13.39-5.54-7.38-7.38-7.38-19.4,0-26.78l28.23-28.22c7.38-7.38,19.4-7.38,26.78,0,3.58,3.58,5.55,8.33,5.55,13.39s-1.97,9.82-5.55,13.39l-28.22,28.22c-3.7,3.69-8.55,5.54-13.4,5.54ZM337.02,507.2c-2.14,0-4.27.81-5.9,2.44l-28.23,28.22c-3.25,3.25-3.25,8.54,0,11.79,3.24,3.25,8.54,3.25,11.79,0l28.22-28.22c1.57-1.57,2.44-3.67,2.44-5.9s-.86-4.32-2.44-5.9c-1.61-1.62-3.74-2.43-5.88-2.43Z"></path><path class="cls-1" d="M336.28,573.78c-4.85,0-9.7-1.85-13.39-5.54-7.39-7.39-7.39-19.41,0-26.79,2.07-2.07,5.43-2.07,7.5,0s2.07,5.43,0,7.5c-3.25,3.24-3.25,8.54,0,11.8,3.25,3.24,8.54,3.24,11.79,0l20.03-20.03c1.57-1.58,2.44-3.67,2.44-5.9s-.86-4.31-2.44-5.89c-1.57-1.57-3.67-2.44-5.9-2.44h-.01c-2.22,0-4.31.86-5.88,2.44-2.07,2.07-5.43,2.07-7.5,0-2.07-2.07-2.07-5.43,0-7.5,3.57-3.57,8.33-5.54,13.38-5.54h.02c5.06,0,9.81,1.98,13.39,5.55,3.58,3.58,5.55,8.32,5.55,13.39s-1.97,9.82-5.55,13.39l-20.03,20.03c-3.71,3.69-8.56,5.54-13.41,5.54Z"></path><path class="cls-1" d="M564.05,495.27c-11.95,0-22.92-7.98-26.16-20.07l-29.79-111.16c-1.86-6.96-.9-14.25,2.72-20.53s9.46-10.77,16.42-12.63l29.08-7.79c2.82-.76,5.73.92,6.48,3.74l41.06,153.23c.76,2.82-.92,5.73-3.74,6.48l-29.08,7.79c-2.33.63-4.67.92-6.99.92ZM529.99,341.12c-4.22,1.13-7.78,3.86-9.98,7.69-2.21,3.83-2.8,8.27-1.66,12.49l29.78,111.16c2.36,8.78,11.41,14,20.18,11.65l23.95-6.42-38.31-142.99-23.95,6.43Z"></path><path class="cls-1" d="M235.96,495.22c-2.31,0-4.66-.29-7-.93l-29.08-7.8c-2.82-.75-4.51-3.66-3.74-6.48l41.06-153.23c.37-1.36,1.25-2.51,2.46-3.22,1.22-.7,2.67-.9,4.02-.54l29.08,7.8c14.42,3.86,23.01,18.74,19.15,33.16l-29.78,111.16c-3.24,12.08-14.21,20.08-26.16,20.08ZM231.7,484.06c8.77,2.34,17.82-2.88,20.18-11.65l29.78-111.16c2.35-8.78-2.87-17.82-11.65-20.18l-23.96-6.42-38.31,142.98,23.96,6.43Z"></path><g class="cls-3"><path class="cls-1" d="M432.63,355.36c-1.31,0-2.61-.48-3.64-1.45-2.14-2.01-2.23-5.36-.22-7.49,17.42-18.47,27.02-41.89,27.02-65.96,0-9.72-1.53-19.32-4.54-28.57-20.02.88-39.15-7.21-51.23-21.14-12.08,13.92-31.18,22.03-51.23,21.14-3.02,9.24-4.55,18.84-4.55,28.57,0,23.63,9.29,46.73,26.15,65.04,1.98,2.15,1.85,5.5-.3,7.49-2.16,1.98-5.51,1.84-7.49-.31-18.67-20.27-28.96-45.92-28.96-72.22,0-12.31,2.19-24.42,6.52-36.01.84-2.26,3.12-3.66,5.52-3.41,2.03.21,4.08.32,6.1.32,18.03,0,34.81-8.53,43.81-22.27.97-1.5,2.65-2.39,4.44-2.39s3.45.9,4.43,2.39c8.99,13.74,25.78,22.27,43.81,22.27,2.03,0,4.08-.11,6.1-.32,2.41-.25,4.68,1.15,5.52,3.41,4.33,11.58,6.52,23.69,6.52,36.01,0,26.78-10.61,52.79-29.9,73.23-1.06,1.1-2.46,1.67-3.87,1.67Z"></path></g><path class="cls-1" d="M387.68,325.26c-1.41,0-2.75-.56-3.74-1.56l-18.88-18.88c-2.07-2.07-2.07-5.43,0-7.5,2.07-2.07,5.43-2.07,7.5,0l15.13,15.13,39.77-39.77c2.07-2.07,5.43-2.07,7.5,0,2.07,2.07,2.07,5.43,0,7.5l-43.52,43.52c-1,1-2.34,1.56-3.76,1.56Z"></path></svg>