<svg xmlns="http://www.w3.org/2000/svg" xmlns:xlink="http://www.w3.org/1999/xlink" id="Layer_1" data-name="Layer 1" viewBox="0 0 800 800"><defs><style>      .cls-1 {        fill: #01008c;      }      .cls-1, .cls-2 {        stroke-width: 0px;      }      .cls-3 {        clip-path: url(#clippath-2);      }      .cls-2 {        fill: none;      }      .cls-4 {        clip-path: url(#clippath-1);      }      .cls-5 {        clip-path: url(#clippath-4);      }      .cls-6 {        clip-path: url(#clippath);      }      .cls-7 {        clip-path: url(#clippath-3);      }      .cls-8 {        clip-path: url(#clippath-5);      }    </style><clipPath id="clippath"><rect class="cls-2" x="446.32" y="202" width="70.67" height="69.02"></rect></clipPath><clipPath id="clippath-1"><rect class="cls-2" x="283.66" y="202" width="69.33" height="69.02"></rect></clipPath><clipPath id="clippath-2"><rect class="cls-2" x="195.01" y="337.68" width="75.31" height="260.32"></rect></clipPath><clipPath id="clippath-3"><rect class="cls-2" x="228.99" y="420.35" width="117.33" height="177.65"></rect></clipPath><clipPath id="clippath-4"><rect class="cls-2" x="454.32" y="420.35" width="117.33" height="177.65"></rect></clipPath><clipPath id="clippath-5"><rect class="cls-2" x="528.99" y="337.68" width="76" height="260.32"></rect></clipPath></defs><path class="cls-1" d="M461.22,427.18v-61.42c0-33.84-27.57-61.41-61.41-61.41s-61.42,27.57-61.42,61.41v61.42c0,3.75,3.07,6.82,6.83,6.82h109.17c3.76,0,6.83-3.07,6.83-6.82Z"></path><path class="cls-1" d="M474.86,365.76v40.94h61.41c3.75,0,6.82-3.07,6.82-6.82v-61.41c0-33.84-27.57-61.41-61.41-61.41-18.97,0-35.89,8.67-47.15,22.18,23.95,12.55,40.33,37.67,40.33,66.53Z"></path><path class="cls-1" d="M263.33,406.7h61.41v-40.94c0-28.86,16.38-53.97,40.33-66.53-11.26-13.51-28.18-22.18-47.15-22.18-33.84,0-61.41,27.57-61.41,61.41v61.41c0,3.76,3.07,6.82,6.82,6.82Z"></path><path class="cls-1" d="M433.92,263.41c0,1.11-.05,2.23-.16,3.34-.11,1.11-.28,2.21-.49,3.31-.22,1.09-.49,2.18-.81,3.24-.32,1.07-.7,2.12-1.13,3.15-.43,1.04-.9,2.04-1.43,3.03-.53.98-1.1,1.94-1.72,2.87s-1.29,1.83-1.99,2.69c-.71.86-1.46,1.69-2.25,2.48s-1.61,1.54-2.48,2.24-1.76,1.38-2.69,1.99c-.93.63-1.89,1.2-2.88,1.72-.98.53-1.99,1.01-3.03,1.43-1.03.43-2.08.8-3.15,1.13s-2.15.6-3.25.81c-1.09.22-2.2.39-3.31.49-1.11.11-2.23.16-3.34.16s-2.23-.05-3.35-.16c-1.11-.11-2.21-.28-3.31-.49-1.1-.21-2.18-.48-3.25-.81-1.07-.32-2.12-.7-3.15-1.13s-2.04-.91-3.03-1.43c-.99-.53-1.94-1.1-2.88-1.72-.93-.62-1.82-1.29-2.69-1.99s-1.69-1.46-2.48-2.24-1.54-1.62-2.25-2.48c-.71-.86-1.38-1.76-1.99-2.69s-1.19-1.89-1.72-2.87c-.53-.99-1-1.99-1.43-3.03-.43-1.03-.81-2.08-1.13-3.15-.32-1.07-.59-2.15-.81-3.24-.22-1.1-.39-2.2-.49-3.31-.11-1.11-.16-2.23-.16-3.34s.05-2.23.16-3.34c.11-1.11.28-2.22.49-3.31.22-1.1.49-2.18.81-3.25s.7-2.12,1.13-3.15c.43-1.03.9-2.04,1.43-3.03.53-.98,1.1-1.94,1.72-2.88.62-.93,1.29-1.82,1.99-2.69s1.46-1.69,2.25-2.48c.79-.79,1.61-1.54,2.48-2.25s1.76-1.38,2.69-1.99c.93-.62,1.89-1.19,2.88-1.72.98-.53,1.99-1.01,3.03-1.43s2.08-.81,3.15-1.13,2.15-.59,3.25-.81c1.09-.22,2.2-.38,3.31-.49,1.11-.11,2.23-.17,3.35-.17s2.23.06,3.34.17c1.11.11,2.21.27,3.31.49,1.1.22,2.18.49,3.25.81s2.12.7,3.15,1.13c1.04.43,2.04.9,3.03,1.43.99.53,1.94,1.1,2.88,1.72.93.62,1.82,1.29,2.69,1.99s1.69,1.46,2.48,2.25c.79.79,1.54,1.61,2.25,2.48s1.38,1.76,1.99,2.69c.62.93,1.19,1.89,1.72,2.88.53.98,1,1.99,1.43,3.03.43,1.03.81,2.08,1.13,3.15s.59,2.15.81,3.25c.22,1.09.39,2.2.49,3.31.11,1.11.16,2.22.16,3.34Z"></path><g class="cls-6"><path class="cls-1" d="M515.81,236.11c0,1.12-.06,2.23-.17,3.34-.11,1.11-.27,2.22-.49,3.31-.22,1.1-.49,2.18-.82,3.25-.32,1.07-.7,2.12-1.13,3.15s-.91,2.04-1.43,3.03-1.1,1.94-1.72,2.88c-.63.93-1.29,1.82-1.99,2.69s-1.46,1.69-2.25,2.48-1.62,1.54-2.48,2.25c-.86.71-1.76,1.38-2.69,1.99-.93.62-1.89,1.19-2.87,1.72s-1.99,1.01-3.03,1.43-2.08.8-3.15,1.13c-1.07.32-2.16.59-3.25.81s-2.2.38-3.31.49c-1.11.11-2.22.17-3.34.17s-2.23-.06-3.34-.17c-1.11-.11-2.22-.27-3.31-.49s-2.18-.49-3.25-.81c-1.07-.33-2.12-.7-3.15-1.13s-2.04-.91-3.03-1.43-1.94-1.1-2.87-1.72c-.93-.62-1.83-1.29-2.69-1.99s-1.69-1.46-2.48-2.25-1.54-1.61-2.25-2.48-1.37-1.76-1.99-2.69c-.62-.93-1.19-1.89-1.72-2.88s-1.01-1.99-1.43-3.03-.8-2.08-1.13-3.15c-.32-1.07-.59-2.15-.81-3.25-.22-1.09-.38-2.2-.49-3.31-.11-1.11-.17-2.22-.17-3.34s.06-2.23.17-3.34c.11-1.11.27-2.21.49-3.31.22-1.09.49-2.18.81-3.24.33-1.07.7-2.12,1.13-3.16.43-1.03.91-2.04,1.43-3.03s1.1-1.94,1.72-2.87c.63-.93,1.29-1.83,1.99-2.69.71-.86,1.46-1.69,2.25-2.48.79-.79,1.61-1.54,2.48-2.24.86-.71,1.76-1.38,2.69-1.99.93-.63,1.89-1.2,2.87-1.72s1.99-1.01,3.03-1.43,2.08-.8,3.15-1.13c1.07-.33,2.16-.6,3.25-.82,1.09-.21,2.2-.38,3.31-.49,1.11-.11,2.22-.16,3.34-.16s2.23.05,3.34.16c1.11.11,2.22.28,3.31.49,1.09.22,2.18.49,3.24.82,1.07.32,2.13.7,3.16,1.13s2.04.91,3.03,1.43,1.94,1.1,2.87,1.72c.93.62,1.83,1.28,2.69,1.99.86.71,1.69,1.46,2.48,2.24.79.79,1.54,1.62,2.25,2.48.71.86,1.37,1.76,1.99,2.69.62.93,1.19,1.89,1.72,2.87s1.01,1.99,1.43,3.03c.43,1.04.8,2.08,1.13,3.16.33,1.07.6,2.15.82,3.24.22,1.1.38,2.2.49,3.31.11,1.11.17,2.23.17,3.34Z"></path></g><g class="cls-4"><path class="cls-1" d="M352.04,236.11c0,1.12-.06,2.23-.17,3.34-.11,1.11-.27,2.22-.49,3.31-.22,1.1-.49,2.18-.81,3.25-.33,1.07-.7,2.12-1.13,3.15s-.91,2.04-1.43,3.03-1.1,1.94-1.72,2.88c-.62.93-1.29,1.82-1.99,2.69s-1.46,1.69-2.25,2.48-1.61,1.54-2.48,2.25-1.76,1.38-2.69,1.99c-.93.62-1.89,1.19-2.87,1.72s-1.99,1.01-3.03,1.43-2.08.8-3.15,1.13c-1.07.32-2.16.59-3.25.81s-2.2.38-3.31.49c-1.11.11-2.22.17-3.34.17s-2.23-.06-3.34-.17-2.21-.27-3.31-.49c-1.09-.22-2.18-.49-3.24-.81-1.07-.33-2.13-.7-3.16-1.13s-2.04-.91-3.03-1.43-1.94-1.1-2.87-1.72c-.93-.62-1.83-1.29-2.69-1.99-.86-.71-1.69-1.46-2.48-2.25s-1.54-1.61-2.25-2.48-1.37-1.76-1.99-2.69c-.62-.93-1.19-1.89-1.72-2.88s-1.01-1.99-1.43-3.03-.8-2.08-1.13-3.15c-.33-1.07-.6-2.15-.82-3.25-.22-1.09-.38-2.2-.49-3.31-.11-1.11-.17-2.22-.17-3.34s.06-2.23.17-3.34c.11-1.11.27-2.21.49-3.31.22-1.09.49-2.18.82-3.24.32-1.07.7-2.12,1.13-3.16.43-1.03.91-2.04,1.43-3.03s1.1-1.94,1.72-2.87c.63-.93,1.29-1.83,1.99-2.69.71-.86,1.46-1.69,2.25-2.48.79-.79,1.62-1.54,2.48-2.24.86-.71,1.76-1.38,2.69-1.99.93-.63,1.89-1.2,2.87-1.72s1.99-1.01,3.03-1.43,2.08-.8,3.16-1.13c1.07-.33,2.15-.6,3.24-.82,1.1-.21,2.2-.38,3.31-.49s2.23-.16,3.34-.16,2.23.05,3.34.16c1.11.11,2.22.28,3.31.49,1.09.22,2.18.49,3.25.82,1.07.32,2.12.7,3.15,1.13s2.04.91,3.03,1.43,1.94,1.1,2.87,1.72c.93.62,1.83,1.28,2.69,1.99.86.71,1.69,1.46,2.48,2.24.79.79,1.54,1.62,2.25,2.48.71.86,1.38,1.76,1.99,2.69s1.19,1.89,1.72,2.87,1.01,1.99,1.43,3.03c.43,1.04.8,2.08,1.13,3.16.32,1.07.59,2.15.81,3.24.22,1.1.38,2.2.49,3.31.11,1.11.17,2.23.17,3.34Z"></path></g><g class="cls-3"><path class="cls-1" d="M219.59,484.02c-7.03-7.57-10.85-17.47-10.85-27.77v-93.9c0-2.86,1.23-5.66,3.34-7.57,2.18-1.98,4.98-2.86,7.92-2.59,5.11.55,9.14,5.39,9.14,11.13v42.44c0,3.75,3.07,6.82,6.83,6.82s6.82-3.07,6.82-6.82v-42.44c0-12.69-9.42-23.54-21.43-24.7-6.76-.68-13.44,1.5-18.49,6.07-4.98,4.51-7.84,10.99-7.84,17.74v93.89c0,13.78,5.11,26.89,14.46,37.05l45.1,48.92c1.16,1.3,1.84,2.94,1.84,4.64v44.15c0,3.75,3.07,6.82,6.82,6.82s6.82-3.07,6.82-6.82v-44.15c0-5.18-1.91-10.1-5.46-13.85l-45.1-48.93.07-.14Z"></path></g><g class="cls-7"><path class="cls-1" d="M269.95,427.31c-9.28-9.21-24.43-9.21-33.78,0-4.51,4.5-7.03,10.51-7.03,16.92s2.46,12.35,7.03,16.85l33.84,33.84c1.36,1.36,3.07,1.98,4.84,1.98s3.48-.68,4.84-1.98c2.66-2.66,2.66-6.96,0-9.62l-33.84-33.84c-1.91-1.91-3-4.51-3-7.23s1.09-5.32,3-7.23c4.03-3.89,10.51-3.89,14.47,0l57.25,57.25c9.01,9.01,13.98,21.02,13.98,33.78v62.98c0,3.75,3.07,6.82,6.82,6.82s6.83-3.07,6.83-6.82v-62.98c0-16.38-6.42-31.8-18.02-43.4l-57.25-57.25v-.07Z"></path></g><g class="cls-5"><path class="cls-1" d="M563.36,461.16c4.51-4.51,7.03-10.51,7.03-16.92s-2.46-12.35-7.03-16.92c-9.28-9.21-24.43-9.21-33.78,0l-57.25,57.25c-11.6,11.6-18.02,27.02-18.02,43.4v62.98c0,3.76,3.07,6.83,6.83,6.83s6.82-3.07,6.82-6.83v-62.98c0-12.76,4.98-24.77,13.98-33.78l57.18-57.18c4.03-3.96,10.51-3.96,14.47,0,1.91,1.91,3,4.51,3,7.23s-1.09,5.32-3,7.23l-33.85,33.84c-2.66,2.66-2.66,6.96,0,9.62,1.36,1.36,3.07,1.98,4.85,1.98s3.48-.68,4.84-1.98l33.84-33.84.07.07Z"></path></g><g class="cls-8"><path class="cls-1" d="M596.67,344.61c-4.98-4.51-11.67-6.76-18.49-6.07-12.01,1.23-21.43,12.08-21.43,24.7v42.44c0,3.75,3.07,6.82,6.82,6.82s6.83-3.07,6.83-6.82v-42.44c0-5.73,4.03-10.65,9.14-11.13,2.93-.34,5.8.61,7.92,2.59,2.11,1.91,3.34,4.71,3.34,7.57v93.9c0,10.3-3.82,20.2-10.85,27.77l-45.1,48.92c-3.48,3.82-5.39,8.73-5.39,13.85v44.15c0,3.76,3.07,6.83,6.82,6.83s6.82-3.07,6.82-6.83v-44.15c0-1.71.61-3.34,1.84-4.64l45.1-48.93c9.35-10.1,14.46-23.27,14.46-37.05v-93.9c0-6.76-2.86-13.17-7.84-17.74v.14Z"></path></g></svg>