<svg xmlns="http://www.w3.org/2000/svg" id="Layer_1" data-name="Layer 1" viewBox="0 0 500 500"><defs><style>      .cls-1 {        fill: #0100ff;      }      .cls-1, .cls-2, .cls-3, .cls-4 {        stroke-width: 0px;      }      .cls-2 {        fill: #01008c;      }      .cls-3 {        fill: #fff;      }      .cls-4 {        fill: #007aff;      }    </style></defs><g><g><path class="cls-3" d="M284.46,283.84c0,.11-.03.28-.18.43-.31.31-.57.31-.88,0l-67.61-67.61c-.14-.15-.18-.32-.18-.43s.04-.29.18-.43c.13-.13.29-.18.45-.18s.32.06.43.17l67.61,67.61h0c.15.15.18.32.18.45Z"></path><path class="cls-2" d="M289.16,278.51l-67.61-67.62c-2.95-2.92-7.72-2.92-10.65.01-1.42,1.42-2.21,3.32-2.21,5.33s.78,3.91,2.21,5.32l67.61,67.61c1.42,1.42,3.31,2.21,5.33,2.21s3.9-.78,5.32-2.21c1.42-1.41,2.22-3.31,2.22-5.32s-.78-3.91-2.22-5.33ZM284.28,284.27c-.31.31-.57.31-.88,0l-67.61-67.61c-.14-.15-.18-.32-.18-.43s.04-.29.18-.43c.13-.13.29-.18.45-.18s.32.06.43.17l67.61,67.61h0c.15.15.18.32.18.45,0,.11-.03.28-.18.43Z"></path></g><path class="cls-2" d="M351.8,291.14c-8.1-8.1-18.87-12.55-30.32-12.55h-.01c-5.01,0-9.88.85-14.48,2.48l-88.06-88.06c1.63-4.59,2.49-9.47,2.49-14.49,0-11.45-4.45-22.23-12.55-30.32-12.08-12.08-30.15-15.83-46.07-9.58l-4.91,1.94,26.86,26.86-17.31,17.31-26.86-26.86-1.94,4.91c-6.25,15.9-2.5,33.98,9.58,46.07,8.36,8.35,19.35,12.54,30.32,12.54,4.9,0,9.8-.84,14.46-2.5l88.09,88.09h0c-1.63,4.59-2.48,9.48-2.48,14.49,0,11.45,4.45,22.23,12.55,30.32,8.21,8.19,19.17,12.56,30.34,12.56,5.28,0,10.62-.98,15.73-3l4.9-1.93-26.86-26.85,17.33-17.34,26.86,26.87,1.93-4.91c6.27-15.92,2.51-33.99-9.56-46.07ZM195.97,209.97c-.08.06-.17.1-.25.15-.47.27-.96.5-1.45.74-.52.25-1.03.49-1.56.71-.22.1-.46.2-.7.31-12.97,5.22-28.41,2.58-38.92-7.93-8.82-8.82-12.36-21.47-9.63-33.41l23.97,23.97,27.1-27.1-23.97-23.97c11.95-2.72,24.58.81,33.41,9.63,6.8,6.8,10.54,15.83,10.54,25.44,0,4.65-.88,9.17-2.57,13.36-.1.28-.21.56-.35.82-.21.53-.45,1.05-.71,1.56-.24.52-.5,1.02-.78,1.52-.27.5-.54.99-.85,1.47-.28.49-.6.96-.92,1.44-.31.47-.64.94-.99,1.38-1.02,1.35-2.14,2.65-3.36,3.88-.82.82-1.68,1.61-2.55,2.33-.22.18-.45.36-.68.53-.29.25-.59.47-.89.7-.89.66-1.81,1.27-2.75,1.83-.36.22-.73.43-1.1.63ZM284.43,299.82c-.06.1-.11.2-.15.28-.06.07-.08.13-.11.2l-84.46-84.48c.25-.14.5-.28.75-.45.35-.18.68-.39,1.02-.61.61-.39,1.23-.8,1.81-1.21.03-.01.06-.03.08-.06.34-.24.66-.47.98-.73.87-.64,1.72-1.34,2.55-2.08.28-.25.56-.49.82-.74.38-.35.75-.71,1.13-1.09.38-.38.75-.77,1.12-1.16.22-.25.45-.5.68-.75.17-.2.35-.39.5-.6.21-.24.4-.47.6-.71.35-.42.68-.84.98-1.26.24-.29.45-.57.64-.87.63-.84,1.2-1.7,1.72-2.57.25-.42.49-.82.73-1.24l84.48,84.46c-.07.03-.13.06-.2.11-.1.04-.18.1-.28.15-.21.14-.43.27-.64.39-.6.36-1.19.74-1.77,1.14-.42.27-.82.56-1.23.87-.61.45-1.21.91-1.81,1.41-.24.2-.47.39-.71.6-.2.15-.39.31-.57.49-.31.27-.59.53-.88.81-.36.32-.71.66-1.05,1.01-.18.18-.35.35-.52.53-.25.25-.49.5-.73.75-.25.28-.49.54-.74.84-.32.36-.63.73-.94,1.1-.5.6-.96,1.2-1.41,1.81-.31.4-.6.81-.87,1.23-.4.59-.78,1.19-1.14,1.77-.13.21-.25.43-.39.64ZM356.55,329.45l-23.97-23.97-27.1,27.11,23.97,23.96c-11.94,2.72-24.58-.81-33.41-9.63-6.8-6.8-10.54-15.83-10.54-25.44,0-4.66.88-9.17,2.55-13.35.2-.52.4-1.02.66-1.52.08-.24.2-.46.32-.7.17-.38.36-.75.56-1.13.2-.38.39-.74.61-1.1.2-.36.42-.74.64-1.09.4-.67.85-1.34,1.33-1.98.17-.25.35-.49.53-.74.31-.4.61-.8.94-1.17.28-.35.56-.7.88-1.03.03-.03.04-.06.07-.08.11-.14.24-.27.36-.39.35-.39.71-.77,1.09-1.14h0c.42-.43.84-.82,1.26-1.21.01,0,.03-.01.04-.03.88-.81,1.8-1.56,2.75-2.25.47-.36.95-.7,1.44-1.02.36-.25.73-.49,1.1-.7.06-.06.13-.1.2-.13.34-.21.67-.4,1.01-.59.34-.21.68-.39,1.02-.56.35-.2.71-.38,1.06-.53.18-.1.35-.18.54-.27h.01c.27-.13.52-.24.78-.35.29-.14.6-.27.91-.38,4.17-1.68,8.67-2.54,13.3-2.54h.01c9.6,0,18.64,3.74,25.44,10.54,8.82,8.82,12.36,21.47,9.63,33.41Z"></path><path class="cls-2" d="M207.2,178.81c-.21,8.64-3.76,16.67-10.01,22.63l-4.77-5c4.91-4.69,7.71-11,7.87-17.79.15-6.78-2.33-13.22-7.02-18.13l5.01-4.77c5.96,6.24,9.13,14.44,8.92,23.06Z"></path><g><path class="cls-3" d="M346.92,296.04c-6.8-6.8-15.83-10.54-25.44-10.54h-.01c-4.63,0-9.13.87-13.3,2.54-.31.11-.61.24-.91.38-.27.11-.52.22-.78.35h-.01c-.18.08-.36.17-.54.27-.35.15-.71.34-1.06.53-.34.18-.68.36-1.02.56-.34.18-.67.38-1.01.59-.07.03-.14.07-.2.13-.38.21-.74.45-1.1.7-.49.32-.96.66-1.44,1.02-.95.68-1.87,1.44-2.75,2.25-.01.01-.03.03-.04.03-.42.39-.84.78-1.26,1.2h0c-.38.39-.74.77-1.09,1.16-.13.13-.25.25-.36.39-.03.03-.04.06-.07.08-.31.34-.6.68-.88,1.03-.32.38-.63.77-.94,1.17-.18.25-.36.49-.53.74-.47.64-.92,1.31-1.33,1.98-.22.35-.45.73-.64,1.09-.22.36-.42.73-.61,1.1-.2.38-.39.75-.56,1.13-.11.22-.22.46-.32.7-.25.5-.46,1.01-.66,1.52-1.68,4.17-2.55,8.68-2.55,13.35,0,9.6,3.74,18.64,10.54,25.44,8.82,8.82,21.47,12.36,33.41,9.63l-23.97-23.96,27.1-27.11,23.97,23.97c2.72-11.94-.81-24.58-9.63-33.41ZM298.38,320.6c-.17,6.78,2.33,13.23,7.01,18.13l-5,4.77c-5.96-6.24-9.13-14.44-8.92-23.06.2-8.64,3.76-16.68,10-22.64l4.77,5.01c-4.91,4.68-7.71,11-7.86,17.79Z"></path><path class="cls-4" d="M300.09,292.55c-.95.68-1.87,1.44-2.75,2.25.88-.8,1.8-1.55,2.75-2.25ZM296.04,296.04c.4-.4.82-.81,1.26-1.21-.42.39-.84.78-1.26,1.2h0ZM290.64,291.67c.17-.18.34-.35.52-.53h-.01c-.18.18-.35.35-.5.53Z"></path></g><path class="cls-2" d="M298.38,320.6c-.17,6.78,2.33,13.23,7.01,18.13l-5,4.77c-5.96-6.24-9.13-14.44-8.92-23.06.2-8.64,3.76-16.68,10-22.64l4.77,5.01c-4.91,4.68-7.71,11-7.86,17.79Z"></path></g><g><path class="cls-3" d="M310.72,166.82l-1.27,1.95-2.99,4.72c-.1.15-.2.32-.29.47l-1.21-.74c.06-.08.11-.17.17-.25l2.58-3.96c.89-.71,1.91-1.45,3.02-2.19Z"></path><path class="cls-3" d="M304.4,171.88l-.29.45c-.06.1-.13.2-.18.29l-.18-.11c.2-.18.4-.4.66-.63Z"></path><path class="cls-3" d="M323.9,161.18c-.31.46-.63.91-.94,1.37-1.07,1.58-2.12,3.18-3.2,4.77l-3.13,4.82-3.07,4.86c-.22.35-.43.7-.66,1.03l-1.23-.74c.18-.27.36-.54.53-.81l3.11-4.76,3.04-4.82c.99-1.62,2-3.21,2.97-4.84.07-.11.13-.21.2-.32.77-.21,1.56-.4,2.36-.56Z"></path><path class="cls-3" d="M320.06,162.2c-.92,1.34-1.81,2.71-2.71,4.05l-3.11,4.77-3.04,4.8c-.17.29-.35.57-.53.85l-1.23-.74c.14-.21.28-.42.42-.63l3.07-4.72,3.02-4.76c.56-.91,1.12-1.81,1.68-2.72.8-.32,1.61-.63,2.44-.91Z"></path><path class="cls-3" d="M315.73,163.96c-.27.4-.54.81-.81,1.21l-3.07,4.73-3.02,4.75c-.14.22-.28.45-.42.67l-1.21-.74c.1-.14.2-.29.29-.43l3.03-4.68,2.64-4.16c.81-.46,1.68-.92,2.57-1.35Z"></path><path class="cls-3" d="M330.6,160.65c-.92,1.31-1.83,2.62-2.72,3.95-1.1,1.61-2.16,3.25-3.25,4.87l-3.2,4.91-3.14,4.94c-.28.46-.56.91-.84,1.35l-1.26-.73c.25-.38.5-.75.75-1.13l3.17-4.87,3.1-4.9c1.02-1.65,2.05-3.28,3.04-4.94.71-1.14,1.4-2.3,2.08-3.46.74-.03,1.49-.03,2.26,0Z"></path><path class="cls-3" d="M333.58,160.95c-1.09,1.55-2.18,3.11-3.24,4.68-1.12,1.63-2.19,3.28-3.28,4.93l-3.22,4.96-3.17,5c-.32.5-.63,1.01-.94,1.49l-1.26-.73c.28-.42.56-.85.85-1.28l3.18-4.9,3.14-4.96c1.03-1.66,2.07-3.31,3.07-4.98.91-1.48,1.79-2.96,2.67-4.45.73.06,1.45.13,2.19.25Z"></path><path class="cls-3" d="M327.4,160.71c-.67.95-1.33,1.91-1.98,2.86-1.09,1.61-2.15,3.22-3.22,4.83l-3.17,4.86-3.1,4.91c-.25.39-.5.8-.75,1.2l-1.24-.73c.22-.34.43-.67.66-.99l3.13-4.82,3.07-4.86c1.02-1.63,2.04-3.25,3.02-4.89.43-.71.85-1.42,1.27-2.12.77-.13,1.54-.21,2.33-.27Z"></path><path class="cls-3" d="M336.07,161.44l-4.03,6.34c-.85,1.28-1.7,2.57-2.57,3.85l-3.25,5-3.2,5.05c-.34.54-.68,1.1-1.02,1.65l-1.27-.74c.32-.47.63-.95.95-1.42l3.22-4.96,3.17-5c1.03-1.68,2.09-3.35,3.11-5.04,1.03-1.69,2.04-3.41,3.04-5.12.61.11,1.23.24,1.84.39Z"></path><path class="cls-4" d="M306.17,173.97s-.04.08-.07.13l-1.24-.73s.07-.08.1-.14l1.21.74Z"></path><path class="cls-4" d="M310.67,176.68s-.01.04-.03.06l-1.24-.73s.03-.04.04-.07l1.23.74Z"></path><path class="cls-4" d="M312.91,178.03h0s-1.24-.71-1.24-.71c0,0,0-.01.01-.03l1.23.74Z"></path><path class="cls-4" d="M308.42,175.33s-.03.06-.04.08l-1.24-.71s.04-.07.07-.11l1.21.74Z"></path><path class="cls-3" d="M316.24,182.52c-.42.67-.84,1.34-1.24,2.02-1.01,1.65-2,3.31-2.97,4.98l-1.17-.67c-.2-.11-.39-.2-.59-.28,1.09-1.55,2.18-3.13,3.24-4.7.49-.7.95-1.41,1.42-2.12l1.31.77Z"></path><path class="cls-3" d="M313.96,181.19c-.43.71-.88,1.42-1.3,2.14-1.03,1.68-2.04,3.36-3.03,5.07-.92-.18-1.87-.06-2.69.35,1.44-2.01,2.85-4.05,4.23-6.09.5-.74.99-1.48,1.48-2.22l1.31.75Z"></path><path class="cls-3" d="M218.58,260c-.13,1.23-.22,2.47-.29,3.7l-1.94,1.3c-.03-1.17-.07-2.33-.14-3.5l2.37-1.49Z"></path><path class="cls-3" d="M215.94,261.66c-.11,1.27-.22,2.54-.29,3.81l-1.93,1.28c-.03-1.2-.07-2.4-.14-3.6l2.36-1.49Z"></path><path class="cls-3" d="M221.21,258.34c-.13,1.2-.21,2.4-.29,3.6l-1.94,1.3c-.03-1.13-.07-2.26-.14-3.41l2.37-1.49Z"></path><path class="cls-3" d="M229.09,253.34c-.11,1.1-.2,2.19-.27,3.29l-1.98,1.33c-.03-1.03-.07-2.07-.14-3.11l2.39-1.51Z"></path><path class="cls-3" d="M304.89,175.93c-.53.84-1.05,1.68-1.56,2.53-1.48,2.46-2.95,4.91-4.34,7.4.8-2.51,1.49-4.91,2.07-6.94.27-.38.53-.75.78-1.13.6-.87,1.17-1.73,1.76-2.61l1.3.75Z"></path><path class="cls-3" d="M226.47,255c-.11,1.14-.21,2.28-.28,3.41l-1.97,1.31c-.03-1.07-.07-2.14-.14-3.21l2.39-1.51Z"></path><path class="cls-3" d="M213.32,263.33c-.13,1.3-.22,2.6-.31,3.89l-1.91,1.28c-.03-1.23-.07-2.46-.14-3.7l2.36-1.48Z"></path><path class="cls-3" d="M231.73,251.68c-.11,1.06-.21,2.12-.28,3.2l-1.98,1.33c-.03-1.01-.07-2.01-.14-3.02l2.4-1.51Z"></path><path class="cls-3" d="M223.83,256.67c-.11,1.16-.21,2.33-.28,3.49l-1.95,1.31c-.03-1.1-.07-2.21-.14-3.31l2.37-1.49Z"></path><path class="cls-3" d="M320.77,185.15c-.38.6-.75,1.2-1.12,1.81-1.03,1.7-2.07,3.42-3.09,5.15l-1.72-.99c1.12-1.61,2.22-3.21,3.32-4.83.43-.63.85-1.27,1.28-1.91l1.31.77Z"></path><path class="cls-3" d="M323.05,186.47c-.36.57-.71,1.14-1.06,1.72-1.06,1.75-2.11,3.48-3.13,5.24l-1.73-.99c1.14-1.62,2.26-3.27,3.38-4.91.4-.6.81-1.2,1.21-1.81l1.33.77Z"></path><path class="cls-3" d="M318.5,183.83c-.39.64-.78,1.28-1.17,1.93-1.02,1.68-2.04,3.36-3.03,5.07l-1.73-.99c1.1-1.58,2.19-3.16,3.27-4.75.46-.67.91-1.34,1.35-2.01l1.31.75Z"></path><path class="cls-3" d="M202.79,269.99c-.14,1.42-.24,2.85-.32,4.27v.03l-1.87,1.26c-.03-1.35-.07-2.72-.14-4.09l2.33-1.47Z"></path><path class="cls-3" d="M210.68,264.99c-.13,1.33-.22,2.67-.31,4.01l-1.9,1.27c-.03-1.26-.07-2.53-.14-3.8l2.35-1.48Z"></path><path class="cls-3" d="M183.83,292.39c-.04,2.19-.06,4.38-.03,6.58.01,1.86.07,3.73.17,5.58l-2.44,1.52c.18-1.79.29-3.57.39-5.35.13-2.21.2-4.41.25-6.62.04-2.21.07-4.43.04-6.63-.01-1.34-.06-2.68-.11-4.02l2.25-1.55c-.11,1.3-.2,2.61-.27,3.91-.13,2.19-.2,4.38-.25,6.58Z"></path><path class="cls-3" d="M205.42,268.33c-.13,1.4-.24,2.79-.31,4.2l-1.88,1.26c-.03-1.33-.07-2.65-.14-3.99l2.33-1.47Z"></path><path class="cls-3" d="M208.06,266.66c-.13,1.37-.24,2.74-.31,4.1l-1.9,1.27c-.03-1.3-.07-2.6-.14-3.89l2.35-1.48Z"></path><path class="cls-3" d="M170.7,300.86c-.04,2.26-.07,4.52-.04,6.8.01,1.7.06,3.41.14,5.11l-2.35,1.47c.14-1.61.24-3.21.32-4.83.14-2.28.21-4.55.27-6.83.04-2.29.07-4.57.04-6.85-.01-1.07-.04-2.14-.07-3.21l2.12-1.48c-.07,1.01-.13,2.02-.18,3.03-.13,2.26-.2,4.52-.25,6.8Z"></path><path class="cls-3" d="M196.99,283.91c-.04,2.11-.07,4.23-.03,6.35.01,2.01.07,4.03.21,6.06l-2.55,1.59c.21-1.97.35-3.94.46-5.89.13-2.14.2-4.27.24-6.39.04-2.14.07-4.27.04-6.41-.03-1.48-.07-2.96-.14-4.44l2.32-1.47c-.13,1.42-.24,2.83-.31,4.24-.13,2.11-.2,4.23-.24,6.35Z"></path><path class="cls-3" d="M194.35,285.6c-.03,2.14-.06,4.27-.03,6.41.03,1.98.08,3.96.21,5.95l-2.53,1.59c.2-1.93.34-3.87.45-5.79.11-2.14.18-4.29.24-6.44.04-2.15.07-4.3.04-6.44-.03-1.48-.07-2.96-.14-4.44l2.3-1.45c-.13,1.4-.22,2.81-.29,4.22-.13,2.14-.2,4.26-.25,6.39Z"></path><path class="cls-3" d="M173.32,299.16c-.04,2.26-.07,4.51-.04,6.76.03,1.75.06,3.48.15,5.21l-2.36,1.48c.14-1.65.25-3.28.34-4.93.13-2.26.2-4.54.25-6.8.04-2.26.07-4.52.04-6.8-.01-1.13-.04-2.25-.07-3.38l2.15-1.49c-.08,1.07-.15,2.14-.21,3.21-.13,2.25-.2,4.5-.25,6.74Z"></path><path class="cls-3" d="M199.81,294.67l-2.58,1.61c.22-2,.36-4.01.47-6,.13-2.11.2-4.23.25-6.35,0-.4,0-.8.01-1.2.17.52.4,1.02.73,1.51.25.38.56.73.88,1.03,0,1.09,0,2.18.01,3.25.03,2.05.08,4.1.22,6.16Z"></path><path class="cls-3" d="M186.46,290.68c-.03,2.18-.06,4.36-.03,6.53.03,1.9.07,3.78.18,5.68l-2.46,1.54c.18-1.81.31-3.64.4-5.46.13-2.19.18-4.38.24-6.58.04-2.19.07-4.38.04-6.58-.01-1.4-.06-2.79-.11-4.19l2.26-1.56c-.11,1.35-.21,2.72-.28,4.09-.13,2.18-.2,4.34-.25,6.52Z"></path><path class="cls-3" d="M181.21,294.07c-.04,2.21-.07,4.41-.04,6.62.03,1.83.07,3.67.17,5.5l-2.42,1.51c.17-1.75.28-3.5.38-5.25.13-2.22.2-4.44.25-6.66.04-2.22.07-4.44.03-6.66-.01-1.3-.04-2.58-.08-3.87l2.22-1.54c-.11,1.24-.2,2.49-.25,3.73-.13,2.21-.2,4.41-.25,6.62Z"></path><path class="cls-3" d="M191.72,287.3c-.04,2.14-.06,4.29-.03,6.44.01,1.95.07,3.91.2,5.86l-2.51,1.58c.2-1.9.34-3.8.43-5.68.13-2.16.2-4.33.25-6.49.04-2.15.06-4.31.03-6.48-.01-1.48-.06-2.95-.13-4.43l2.3-1.45c-.13,1.4-.22,2.81-.31,4.2-.11,2.15-.18,4.3-.24,6.45Z"></path><path class="cls-3" d="M202.44,292.85c-.8.54-1.58,1.1-2.37,1.66l-.22.14c.22-2.04.38-4.06.49-6.1.04-.87.08-1.73.11-2.58.54.35,1.13.6,1.76.77v.06c.03,2.01.08,4.03.24,6.06Z"></path><path class="cls-3" d="M175.95,297.47c-.03,2.23-.06,4.47-.03,6.72.01,1.76.06,3.53.14,5.3l-2.37,1.48c.15-1.68.27-3.35.35-5.04.13-2.25.2-4.5.25-6.74.04-2.25.07-4.51.04-6.76-.01-1.19-.04-2.36-.08-3.55l2.18-1.51c-.08,1.13-.17,2.26-.22,3.39-.13,2.23-.2,4.47-.25,6.7Z"></path><path class="cls-3" d="M189.1,288.99c-.04,2.16-.07,4.33-.04,6.49.03,1.91.08,3.84.2,5.77l-2.48,1.55c.2-1.86.32-3.71.42-5.57.13-2.16.2-4.34.25-6.52.03-2.18.06-4.36.03-6.53-.01-1.45-.06-2.9-.13-4.36l1.07-.73,1.21-.78c-.11,1.4-.21,2.79-.29,4.2-.13,2.15-.18,4.31-.24,6.48Z"></path><path class="cls-3" d="M178.59,295.78c-.04,2.22-.07,4.44-.04,6.66.01,1.8.07,3.6.15,5.4l-2.39,1.49c.15-1.72.27-3.43.36-5.14.13-2.23.18-4.47.25-6.72.03-2.23.06-4.47.03-6.7-.01-1.24-.04-2.47-.08-3.71l2.19-1.51c-.08,1.17-.17,2.36-.24,3.55-.13,2.22-.18,4.44-.24,6.67Z"></path><path class="cls-3" d="M372.73,198.64c-.06.94-.14,1.9-.27,2.86l-2.39,3.76c-1.26,2.01-2.53,4.01-3.76,6.04-1.05,1.7-2.09,3.41-3.13,5.12-.95.91-1.94,1.69-2.96,2.3-.43.28-.95.54-1.52.8,2.09-2.93,4.12-5.91,6.13-8.89,1.33-1.94,2.61-3.91,3.91-5.86l3.85-5.92.13-.21Z"></path><path class="cls-3" d="M244.9,243.34c-.11.89-.18,1.79-.25,2.69l-2.05,1.37c-.04-.84-.08-1.68-.14-2.51l2.44-1.55Z"></path><path class="cls-3" d="M242.26,245.02c-.1.92-.18,1.86-.25,2.78l-2.04,1.37c-.03-.87-.08-1.75-.14-2.61l2.43-1.54Z"></path><path class="cls-3" d="M237,248.34c-.11,1.01-.2,2-.27,2.99l-2.01,1.35c-.03-.94-.07-1.87-.14-2.81l2.42-1.54Z"></path><path class="cls-3" d="M247.52,241.68c-.1.87-.18,1.72-.24,2.58l-2.08,1.38c-.03-.81-.07-1.61-.13-2.42l2.44-1.55Z"></path><path class="cls-3" d="M239.63,246.68c-.11.96-.2,1.93-.27,2.89l-2.02,1.35c-.03-.91-.07-1.81-.14-2.71l2.43-1.54Z"></path><path class="cls-3" d="M258.06,235.02c-.2,1.52-.31,3.06-.4,4.58-.11,1.77-.18,3.56-.22,5.33-.01.73-.01,1.45-.03,2.18-.17-.6-.43-1.19-.8-1.72-.24-.35-.52-.68-.81-.98,0-1.05,0-2.09-.01-3.14-.03-1.56-.1-3.13-.21-4.69l2.49-1.56Z"></path><path class="cls-3" d="M200.15,271.65c-.13,1.42-.22,2.83-.31,4.26,0,.07,0,.13-.01.2-.88.74-1.51,1.7-1.86,2.74v-1.27c-.01-1.48-.07-2.96-.14-4.45l2.32-1.47Z"></path><path class="cls-3" d="M287.74,231.24c-.24.29-.47.57-.71.85.03-.32.06-.63.07-.95.11-1.61.17-3.22.21-4.83.01-.15.01-.29.01-.45.87,2.02.66,4.17.42,5.37Z"></path><path class="cls-3" d="M250.16,240.02c-.11.95-.21,1.91-.28,2.88-.63.18-1.23.45-1.79.82l-.27.17c-.03-.77-.07-1.55-.13-2.32l2.46-1.55Z"></path><path class="cls-3" d="M252.79,238.34c-.17,1.47-.28,2.93-.38,4.4-.64-.08-1.3-.08-1.93.03-.03-.95-.08-1.91-.15-2.86l2.46-1.56Z"></path><path class="cls-3" d="M255.42,236.68c-.18,1.52-.31,3.04-.39,4.58-.06.81-.1,1.62-.13,2.43-.53-.35-1.13-.61-1.76-.78-.03-1.56-.08-3.11-.2-4.66l2.47-1.56Z"></path><path class="cls-3" d="M234.37,250.02c-.11,1.02-.21,2.05-.28,3.09l-2,1.34c-.03-.96-.07-1.94-.14-2.9l2.42-1.52Z"></path><path class="cls-3" d="M265.32,239.85c-.03,1.73-.04,3.46,0,5.19.01,1.1.06,2.22.13,3.34-.74.52-1.49,1.06-2.26,1.61.1-1.06.18-2.12.25-3.18.11-1.75.17-3.49.22-5.25.03-1.75.04-3.49,0-5.24-.03-1.56-.08-3.14-.22-4.72l2.53-1.59c-.2,1.55-.34,3.1-.43,4.65-.11,1.73-.17,3.46-.21,5.19Z"></path><path class="cls-3" d="M249.7,259.52c-.78.56-1.56,1.12-2.36,1.68.08-.78.15-1.55.21-2.33l2.05-1.37c.01.67.06,1.35.1,2.02Z"></path><path class="cls-3" d="M267.95,238.15c-.03,1.72-.04,3.43,0,5.15.03,1.07.07,2.15.13,3.21-.73.53-1.48,1.06-2.25,1.61.1-1.02.18-2.04.24-3.06.13-1.73.18-3.46.22-5.19.03-1.73.04-3.46.01-5.19-.04-1.58-.1-3.16-.24-4.72l2.53-1.61c-.2,1.55-.32,3.1-.42,4.66-.11,1.7-.18,3.42-.22,5.14Z"></path><path class="cls-3" d="M257.57,253.95c-.75.54-1.54,1.09-2.32,1.65.07-.68.14-1.38.18-2.07.98-.81,1.66-1.88,2-3.1.03,1.17.07,2.35.14,3.52Z"></path><path class="cls-3" d="M233.95,270.65c-.81.57-1.63,1.14-2.44,1.72.1-.98.18-1.94.25-2.92l2.05-1.38c.03.87.07,1.72.14,2.58Z"></path><path class="cls-3" d="M226.07,276.21c-.82.57-1.65,1.16-2.47,1.75.11-1.07.21-2.15.28-3.21l2.05-1.38c.03.95.08,1.9.14,2.85Z"></path><path class="cls-3" d="M273.21,234.76c-.03,1.69-.04,3.38,0,5.07.01.99.06,1.97.11,2.96-.71.5-1.45,1.03-2.22,1.58.1-.92.17-1.86.22-2.78.11-1.7.17-3.41.22-5.11.03-1.7.04-3.39,0-5.1-.03-1.59-.1-3.17-.24-4.75l2.55-1.62c-.21,1.56-.35,3.13-.45,4.69-.11,1.69-.17,3.38-.21,5.05Z"></path><path class="cls-3" d="M228.69,274.35c-.81.57-1.63,1.16-2.46,1.75.11-1.05.2-2.08.28-3.13l2.05-1.37c.03.92.07,1.83.13,2.75Z"></path><path class="cls-3" d="M270.57,236.46c-.01,1.7-.04,3.41,0,5.11.03,1.02.07,2.05.13,3.09-.73.52-1.47,1.05-2.23,1.59.1-.98.17-1.95.24-2.93.11-1.7.17-3.42.21-5.14.03-1.72.06-3.43.01-5.15-.04-1.58-.1-3.16-.24-4.73l2.54-1.61c-.21,1.55-.34,3.11-.43,4.66-.11,1.7-.17,3.41-.22,5.11Z"></path><path class="cls-3" d="M254.95,255.81c-.77.54-1.55,1.1-2.33,1.66.07-.71.14-1.42.2-2.12l2.04-1.38c.03.61.07,1.23.1,1.84Z"></path><path class="cls-3" d="M241.83,265.09c-.8.56-1.59,1.12-2.4,1.69.1-.88.17-1.75.24-2.62l2.04-1.37c.03.77.07,1.54.13,2.3Z"></path><path class="cls-3" d="M236.58,268.79c-.81.57-1.62,1.14-2.43,1.72.1-.95.18-1.88.25-2.83l2.05-1.37c.03.82.07,1.66.13,2.48Z"></path><path class="cls-3" d="M260.06,243.23c-.03,1.77-.04,3.53,0,5.29.03,1.19.07,2.39.14,3.57-.75.54-1.52,1.09-2.3,1.63.13-1.14.21-2.3.28-3.45.13-1.77.18-3.56.22-5.33.03-1.77.06-3.55.01-5.32-.03-1.58-.08-3.14-.21-4.7l2.48-1.58c-.18,1.54-.31,3.07-.4,4.61-.11,1.76-.17,3.52-.22,5.28Z"></path><path class="cls-3" d="M244.45,263.24c-.8.56-1.59,1.12-2.39,1.69.08-.85.17-1.69.22-2.53l2.05-1.38c.03.74.06,1.48.11,2.22Z"></path><path class="cls-3" d="M275.83,233.07c-.03,1.68-.04,3.35,0,5.01.01.95.06,1.88.11,2.83-.7.49-1.42,1.02-2.21,1.56.08-.88.17-1.76.22-2.64.11-1.68.17-3.36.21-5.05.03-1.69.04-3.38,0-5.07-.03-1.58-.1-3.17-.24-4.75l1.23-.78c.42-.2.85-.38,1.3-.56-.2,1.48-.32,2.95-.42,4.43-.11,1.68-.17,3.34-.21,5.01Z"></path><path class="cls-3" d="M239.2,266.95c-.81.56-1.61,1.13-2.42,1.7.1-.92.18-1.83.24-2.74l2.05-1.37c.03.8.07,1.59.13,2.4Z"></path><path class="cls-3" d="M247.08,261.38c-.78.56-1.58,1.12-2.37,1.68.08-.81.15-1.62.22-2.43l2.04-1.37c.03.71.07,1.41.11,2.12Z"></path><path class="cls-3" d="M262.7,241.54c-.03,1.75-.06,3.49-.01,5.24.03,1.16.07,2.3.14,3.46-.74.53-1.51,1.07-2.29,1.62.11-1.1.21-2.22.28-3.32.11-1.76.17-3.52.22-5.28.03-1.76.04-3.52,0-5.29-.03-1.56-.08-3.13-.22-4.7l2.51-1.58c-.2,1.54-.32,3.07-.42,4.62-.11,1.75-.17,3.49-.21,5.24Z"></path><path class="cls-3" d="M231.33,272.49c-.82.59-1.63,1.16-2.46,1.73.11-1.01.2-2.01.27-3.02l2.05-1.37c.03.88.07,1.77.14,2.65Z"></path><path class="cls-3" d="M210.32,287.29c-.85.61-1.7,1.21-2.57,1.81.15-1.27.25-2.53.35-3.8l2.05-1.37c.04,1.12.08,2.23.17,3.35Z"></path><path class="cls-3" d="M212.94,285.45c-.85.6-1.7,1.2-2.55,1.8.14-1.23.25-2.47.34-3.7l2.05-1.38c.04,1.1.1,2.19.17,3.28Z"></path><path class="cls-3" d="M281.1,229.67c-.03,1.65-.04,3.29,0,4.93.01.85.06,1.69.1,2.54-.63.45-1.35.98-2.16,1.56.07-.78.14-1.56.18-2.35.11-1.65.17-3.31.22-4.97.03-1.66.04-3.31,0-4.97-.03-1.23-.08-2.47-.17-3.7.77-.2,1.51-.31,2.22-.35-.07.8-.14,1.59-.18,2.39-.11,1.63-.17,3.28-.21,4.91Z"></path><path class="cls-3" d="M325.31,187.79c-.32.53-.66,1.07-.99,1.61-1.07,1.77-2.14,3.53-3.18,5.32l-1.73-.99c1.16-1.65,2.3-3.32,3.43-5,.39-.56.77-1.13,1.14-1.72l.5.29.1.07s.08.06.14.07l.59.35Z"></path><path class="cls-3" d="M215.57,283.6c-.84.59-1.69,1.19-2.54,1.79.14-1.2.25-2.4.34-3.6l2.05-1.38c.03,1.06.08,2.12.15,3.2Z"></path><path class="cls-3" d="M302.61,174.6c-.22.36-.46.73-.67,1.09.13-.47.24-.92.34-1.28l.34.2Z"></path><path class="cls-3" d="M205.07,290.99c-.87.61-1.73,1.21-2.6,1.83.22-1.98.38-3.95.49-5.93.59.08,1.17.08,1.75,0,.06-.01.11-.03.17-.04.04,1.38.1,2.76.2,4.15Z"></path><path class="cls-3" d="M327.59,189.11c-.31.5-.63,1.01-.94,1.52-1.09,1.79-2.16,3.57-3.22,5.39l-1.75-.99c1.19-1.68,2.35-3.38,3.49-5.08.36-.53.73-1.07,1.09-1.61l1.33.77Z"></path><path class="cls-3" d="M207.69,289.15c-.87.6-1.72,1.2-2.58,1.81.17-1.42.29-2.83.38-4.26.6-.17,1.19-.43,1.72-.8l.32-.21c.03,1.14.08,2.3.17,3.45Z"></path><path class="cls-3" d="M220.82,279.9c-.84.59-1.66,1.17-2.51,1.76.14-1.13.24-2.26.31-3.41l2.07-1.37c.03,1.01.07,2.01.14,3.02Z"></path><path class="cls-3" d="M329.86,190.43c-.29.46-.59.94-.87,1.41-1.17,1.91-2.33,3.84-3.48,5.78-.34-.45-.75-.84-1.28-1.13l-.28-.17c1.2-1.7,2.39-3.43,3.55-5.15.35-.5.68-1.02,1.02-1.52l1.34.78Z"></path><path class="cls-3" d="M286.35,231.13c.01.54.04,1.09.06,1.63-.6.63-1.21,1.19-1.73,1.66-.13.1-.24.21-.34.31.06-.61.1-1.23.14-1.84.11-1.63.17-3.25.21-4.89.03-1.62.04-3.25,0-4.89v-.2c.45.22.87.52,1.24.89.18.17.34.35.49.54-.03.64-.06,1.28-.07,1.93-.03,1.62-.04,3.24,0,4.84Z"></path><path class="cls-3" d="M283.72,227.99c-.03,1.62-.04,3.25,0,4.89.01.77.06,1.55.08,2.33-.32.25-1.05.8-2.14,1.59.07-.73.13-1.45.18-2.18.11-1.63.17-3.28.21-4.91.03-1.65.04-3.29,0-4.93-.01-.81-.04-1.61-.1-2.42.71,0,1.38.08,2,.28,0,.15-.01.31-.03.46-.11,1.63-.17,3.25-.21,4.89Z"></path><path class="cls-3" d="M223.44,278.05c-.82.59-1.66,1.17-2.48,1.76.11-1.1.21-2.21.29-3.31l2.05-1.38c.03.98.08,1.95.14,2.93Z"></path><path class="cls-3" d="M218.19,281.75c-.84.6-1.68,1.19-2.53,1.77.14-1.16.24-2.33.32-3.49l2.05-1.38c.03,1.03.08,2.07.15,3.1Z"></path><path class="cls-3" d="M278.46,231.38c-.03,1.65-.04,3.31,0,4.97.03.89.06,1.79.11,2.68-.67.49-1.4,1.01-2.18,1.56.07-.82.14-1.66.2-2.49.11-1.68.17-3.35.21-5.01.03-1.68.04-3.35,0-5.03-.03-1.49-.08-2.99-.22-4.48.81-.32,1.62-.59,2.42-.8-.14,1.2-.24,2.4-.31,3.62-.13,1.65-.18,3.31-.22,4.97Z"></path><path class="cls-3" d="M252.32,257.67c-.77.56-1.55,1.1-2.35,1.66.07-.74.14-1.48.2-2.22l2.05-1.38c.03.66.06,1.3.1,1.94Z"></path><path class="cls-4" d="M324.49,187.3l-.5-.29s.03-.01.03-.03l.47.32Z"></path><path class="cls-4" d="M323.12,186.36s-.04.07-.07.11l-1.33-.77c.06-.07.11-.15.15-.24.04.04.07.07.11.1l1.13.8Z"></path><path class="cls-4" d="M202.44,292.85v.18l-2.37,1.48c.8-.56,1.58-1.12,2.37-1.66Z"></path><path class="cls-4" d="M189.64,278.24s0,.04-.01.07l-1.21.78,1.23-.85Z"></path><path class="cls-4" d="M192.28,276.41c0,.08-.01.15-.01.24l-2.3,1.45v-.08l2.32-1.61Z"></path><path class="cls-3" d="M323.16,202.47l-8.45,12.01-.13-.82c-.01-.13-.08-.25-.2-.34.6-.71,1.16-1.44,1.69-2.19.66-.89,1.26-1.81,1.84-2.74.57-.94,1.14-1.87,1.68-2.85.45-.8.87-1.62,1.24-2.46.13.04.27.06.4.01l1.91-.63Z"></path><path class="cls-3" d="M306.88,194.79c-.4.52-.81,1.03-1.2,1.56-.87,1.14-1.69,2.32-2.5,3.5-.8,1.19-1.59,2.37-2.33,3.6-.54.87-1.06,1.75-1.55,2.64l.06-2.12,7.05-10.72-.06.95c0,.18.08.36.22.47.1.07.2.1.31.11Z"></path><path class="cls-2" d="M370.72,176.99c-.22-.27-.56-.4-.91-.38s-.67.21-.85.52l-12.86,20.7-8.75.21-21.04-12.2,11.94-19.89c.07-.1.1-.21.1-.32l.08-3.8.29-.46c.18-.28.21-.64.1-.96-.11-.32-.38-.57-.71-.67-8.49-2.6-17.58-1.28-26.29,3.78-5.51,3.21-9.2,6.94-10.3,8.13-.13,0-.27.03-.38.08-.32.13-.56.4-.64.74-.06.21-5.3,21.32-10.6,29.72-5.39,8.56-15.61,14.73-21.09,18.05-5.26,3.18-132.56,83.34-139.09,91.15-7.61,9.1-5.03,18.96-.52,24.63,2.72,3.41,8.57,6.46,16.21,5.3,3.64-.54,7.71-2.05,12.02-4.94,5.43-3.63,26.44-18.5,50.77-35.71,38.85-27.49,87.23-61.69,92.08-64.27,8.26-4.36,36.6-5.37,42.2-5.54,2.64-.07,9.52-.61,16.45-4.1,6.76-3.39,11.29-8.4,13.47-14.88,4.93-14.67,2.35-30.21-1.69-34.87ZM329.86,190.43c-.29.46-.59.94-.87,1.41-1.17,1.91-2.33,3.84-3.48,5.78-.34-.45-.75-.84-1.28-1.13l-.28-.17c1.2-1.7,2.39-3.43,3.55-5.15.35-.5.68-1.02,1.02-1.52l1.34.78ZM327.59,189.11c-.31.5-.63,1.01-.94,1.52-1.09,1.79-2.16,3.57-3.22,5.39l-1.75-.99c1.19-1.68,2.35-3.38,3.49-5.08.36-.53.73-1.07,1.09-1.61l1.33.77ZM313.96,213.19s-.08.01-.11.03l-2.78,1.02-.98-2.96c-.08-.27-.35-.43-.63-.38l-3.11.53.06-2.6c0-.18-.08-.35-.22-.46-.13-.1-.31-.14-.49-.1l-3.07.82.06-2.9c.01-.18-.07-.35-.21-.46-.14-.11-.34-.14-.5-.08l-2.58.77c.7-.84,1.37-1.7,2.02-2.58.87-1.14,1.69-2.32,2.5-3.49.8-1.19,1.59-2.39,2.33-3.6.43-.71.85-1.41,1.27-2.14l2.02-.74c-.15.28-.31.54-.46.81.22-.29.43-.59.64-.87l.42-.15-.06,2.83c0,.15.07.31.18.42.13-.14.25-.28.38-.4-.08.17-.17.32-.25.49.14.07.29.08.43.03l2.95-1.06-.32,2.36c-.03.18.04.38.18.49t.01.01c.11-.14.22-.28.35-.42-.07.17-.15.34-.22.5.11.04.24.07.36.03l1.86-.49c-.03.06-.06.11-.08.17.04-.07.08-.13.13-.18l1.19-.32-.06,2.54c0,.17.07.34.2.45.13-.15.24-.29.36-.43-.07.18-.15.35-.22.52.11.06.25.06.38.01l2.69-.8v.64c-.06.07-.08.13-.13.2.04-.06.07-.1.11-.15l-.04,1.47c0,.17.07.34.2.43.13-.14.24-.28.36-.42-.07.17-.14.34-.22.52.13.04.27.06.4.01l1.91-.63-8.45,12.01-.13-.82c-.01-.13-.08-.25-.2-.34-.11.14-.22.28-.35.42.07-.17.14-.34.22-.5-.1-.04-.21-.06-.31-.04ZM306.58,194.68c.1.07.2.1.31.11-.4.52-.81,1.03-1.2,1.56-.87,1.14-1.69,2.32-2.5,3.5-.8,1.19-1.59,2.37-2.33,3.6-.54.87-1.06,1.75-1.55,2.64l.06-2.12,7.05-10.72-.06.95c0,.18.08.36.22.47ZM323.05,186.47c-.36.57-.71,1.14-1.06,1.72-1.06,1.75-2.11,3.48-3.13,5.24l-1.73-.99c1.14-1.62,2.26-3.27,3.38-4.91.4-.6.81-1.2,1.21-1.81.06-.07.11-.15.15-.24.04.04.07.07.11.1l1.13.8s-.04.07-.07.11ZM323.98,187.01s.03-.01.03-.03l.47.32.1.07s.08.06.14.07l.59.35c-.32.53-.66,1.07-.99,1.61-1.07,1.77-2.14,3.53-3.18,5.32l-1.73-.99c1.16-1.65,2.3-3.32,3.43-5,.39-.56.77-1.13,1.14-1.72ZM319.66,186.97c-1.03,1.7-2.07,3.42-3.09,5.15l-1.72-.99c1.12-1.61,2.22-3.21,3.32-4.83.43-.63.85-1.27,1.28-1.91l1.31.77c-.38.6-.75,1.2-1.12,1.81ZM317.32,185.75c-1.02,1.68-2.04,3.36-3.03,5.07l-1.73-.99c1.1-1.58,2.19-3.16,3.27-4.75.46-.67.91-1.34,1.35-2.01l1.31.75c-.39.64-.78,1.28-1.17,1.93ZM314.99,184.54c-1.01,1.65-2,3.31-2.97,4.98l-1.17-.67c-.2-.11-.39-.2-.59-.28,1.09-1.55,2.18-3.13,3.24-4.7.49-.7.95-1.41,1.42-2.12l1.31.77c-.42.67-.84,1.34-1.24,2.02ZM312.66,183.33c-1.03,1.68-2.04,3.36-3.03,5.07-.92-.18-1.87-.06-2.69.35,1.44-2.01,2.85-4.05,4.23-6.09.5-.74.99-1.48,1.48-2.22l1.31.75c-.43.71-.88,1.42-1.3,2.14ZM336.07,161.44l-4.03,6.34c-.85,1.28-1.7,2.57-2.57,3.85l-3.25,5-3.2,5.05c-.34.54-.68,1.1-1.02,1.65l-1.27-.74c.32-.47.63-.95.95-1.42l3.22-4.96,3.17-5c1.03-1.68,2.09-3.35,3.11-5.04,1.03-1.69,2.04-3.41,3.04-5.12.61.11,1.23.24,1.84.39ZM333.58,160.95c-1.09,1.55-2.18,3.11-3.24,4.68-1.12,1.63-2.19,3.28-3.28,4.93l-3.22,4.96-3.17,5c-.32.5-.63,1.01-.94,1.49l-1.26-.73c.28-.42.56-.85.85-1.28l3.18-4.9,3.14-4.96c1.03-1.66,2.07-3.31,3.07-4.98.91-1.48,1.79-2.96,2.67-4.45.73.06,1.45.13,2.19.25ZM330.6,160.65c-.92,1.31-1.83,2.62-2.72,3.95-1.1,1.61-2.16,3.25-3.25,4.87l-3.2,4.91-3.14,4.94c-.28.46-.56.91-.84,1.35l-1.26-.73c.25-.38.5-.75.75-1.13l3.17-4.87,3.1-4.9c1.02-1.65,2.05-3.28,3.04-4.94.71-1.14,1.4-2.3,2.08-3.46.74-.03,1.49-.03,2.26,0ZM327.4,160.71c-.67.95-1.33,1.91-1.98,2.86-1.09,1.61-2.15,3.22-3.22,4.83l-3.17,4.86-3.1,4.91c-.25.39-.5.8-.75,1.2l-1.24-.73c.22-.34.43-.67.66-.99l3.13-4.82,3.07-4.86c1.02-1.63,2.04-3.25,3.02-4.89.43-.71.85-1.42,1.27-2.12.77-.13,1.54-.21,2.33-.27ZM321.54,161.74c.77-.21,1.56-.4,2.36-.56-.31.46-.63.91-.94,1.37-1.07,1.58-2.12,3.18-3.2,4.77l-3.13,4.82-3.07,4.86c-.22.35-.43.7-.66,1.03h0s-1.24-.71-1.24-.71c0,0,0-.01.01-.03.18-.27.36-.54.53-.81l3.11-4.76,3.04-4.82c.99-1.62,2-3.21,2.97-4.84.07-.11.13-.21.2-.32ZM317.62,163.11c.8-.32,1.61-.63,2.44-.91-.92,1.34-1.81,2.71-2.71,4.05l-3.11,4.77-3.04,4.8c-.17.29-.35.57-.53.85,0,.01-.01.04-.03.06l-1.24-.73s.03-.04.04-.07c.14-.21.28-.42.42-.63l3.07-4.72,3.02-4.76c.56-.91,1.12-1.81,1.68-2.72ZM304.96,173.23c.06-.08.11-.17.17-.25l2.58-3.96c.89-.71,1.91-1.45,3.02-2.19l1.47-2.25c.7-.42,1.42-.82,2.19-1.2-.29.46-.59.92-.87,1.38l-.35.56c.81-.46,1.68-.92,2.57-1.35-.27.4-.54.81-.81,1.21l-3.07,4.73-3.02,4.75c-.14.22-.28.45-.42.67-.01.03-.03.06-.04.08l-1.24-.71c-.18.27-.36.53-.54.81l-.99-.6c.17-.27.34-.54.5-.81l-1.24-.73s.07-.08.1-.14ZM304.4,171.88l-.29.45c-.06.1-.13.2-.18.29l-.18-.11c.2-.18.4-.4.66-.63ZM299.53,179.68c.49-.81.98-1.62,1.47-2.44.31-.52.63-1.03.95-1.55.13-.47.24-.92.34-1.28l.34.2c.14-.22.28-.45.42-.68l1.01.59c-.15.22-.29.45-.45.67l1.3.75c-.53.84-1.05,1.68-1.56,2.53-1.48,2.46-2.95,4.91-4.34,7.4.8-2.51,1.49-4.91,2.07-6.94-.74,1.1-1.49,2.19-2.26,3.28.27-.88.52-1.72.74-2.51ZM301.23,229.76c-8.4,2.89-106.45,74.93-117.14,82.16-10.68,7.23-30.17,22.91-37.23,24.95-7.06,2.05-13.44-.22-17.56-5.93-2-2.76-2.39-6.23-1.97-9.58.46-2.81,1.72-5.72,4.09-8.56,6.2-7.41,132.93-87.3,138.54-90.69,5.64-3.41,16.14-9.76,21.81-18.75,2.51-3.99,4.96-10.54,6.9-16.52,1.9-2.58,3.71-5.21,5.5-7.85.57-.82,1.13-1.68,1.69-2.51l1.3.75c-.5.81-1.01,1.62-1.49,2.44-1.94,3.21-3.85,6.44-5.65,9.74,2.25-3.02,4.4-6.1,6.51-9.21.54-.8,1.07-1.61,1.62-2.42l1.3.77c-.49.77-.96,1.55-1.44,2.33-1.97,3.24-3.89,6.51-5.72,9.84,2.28-3.04,4.44-6.17,6.58-9.31.52-.75,1.03-1.54,1.55-2.3l1.31.75c-.46.74-.92,1.48-1.37,2.23-1.45,2.39-2.89,4.79-4.27,7.22-.29.25-.56.56-.78.91l-9.65,15.13c-1.26,1.98-.66,4.59,1.34,5.81l12.51,7.58c1.88,1.14,4.33.63,5.58-1.17l10.53-15.09c.94-1.34.96-3,.27-4.33,1.35-1.91,2.68-3.84,3.98-5.78.32-.47.64-.95.96-1.42l1.33.78c-.27.43-.53.87-.8,1.31-2.18,3.56-4.31,7.15-6.34,10.79,2.47-3.36,4.84-6.78,7.19-10.25.29-.43.59-.88.88-1.31l1.34.77c-.25.4-.5.81-.74,1.21-2.19,3.59-4.36,7.2-6.41,10.89,2.51-3.39,4.9-6.85,7.26-10.34.28-.4.54-.81.81-1.21l1.35.78c-.24.36-.46.73-.68,1.1-2.22,3.63-4.4,7.27-6.46,10.99,2.53-3.42,4.94-6.92,7.32-10.44.25-.36.5-.74.75-1.12l1.34.78c-.2.34-.4.67-.61,1.01-2.23,3.66-4.44,7.34-6.52,11.08,2.54-3.45,4.97-6.98,7.37-10.54.24-.34.46-.67.68-1.02l1.35.8c-.18.29-.38.6-.56.89-2.25,3.69-4.47,7.4-6.59,11.18,2.57-3.49,5.03-7.05,7.44-10.62.21-.31.42-.61.63-.92l1.35.78-.5.8c-2.28,3.73-4.51,7.47-6.65,11.28,2.58-3.52,5.07-7.11,7.51-10.72.18-.28.36-.54.54-.82l1.35.8c-.14.22-.28.46-.42.7-2.3,3.74-4.57,7.52-6.72,11.36,2.61-3.55,5.11-7.18,7.57-10.82.17-.25.32-.49.49-.74.14.06.28.08.42.08l1.41-.04c-.28.46-.57.91-.84,1.37-2.32,3.78-4.61,7.58-6.77,11.46,2.62-3.59,5.14-7.23,7.62-10.92.43-.64.87-1.28,1.3-1.94l1.81-.04c-.54.88-1.1,1.76-1.63,2.65-2.35,3.81-4.65,7.65-6.84,11.56,2.65-3.62,5.19-7.3,7.69-11.01.73-1.07,1.45-2.15,2.16-3.22l1.76-.04c-.82,1.3-1.65,2.61-2.44,3.94-2.36,3.84-4.68,7.72-6.9,11.66,2.67-3.64,5.24-7.37,7.75-11.11,1.02-1.49,2.02-3.02,3.03-4.52h.54c.36-.01.71-.21.91-.53l12.29-19.78c.18.31.35.66.52,1.03-.35.5-.68,1.02-1.03,1.52-1.28,1.87-2.53,3.78-3.78,5.68l-3.73,5.71-3.66,5.77c-1.2,1.93-2.42,3.85-3.6,5.79-2.37,3.88-4.72,7.78-6.95,11.75,2.69-3.69,5.26-7.43,7.8-11.21,1.28-1.87,2.53-3.78,3.8-5.67l3.71-5.72,3.66-5.77c1.2-1.93,2.43-3.85,3.6-5.79.21-.32.4-.66.61-.99.22.61.43,1.3.63,2.01-1.16,1.72-2.3,3.46-3.45,5.18l-3.76,5.78-3.7,5.79c-1.2,1.95-2.44,3.9-3.63,5.85-2.4,3.91-4.76,7.85-7.01,11.85,2.71-3.71,5.3-7.5,7.87-11.29,1.28-1.9,2.54-3.83,3.81-5.74l3.76-5.77,3.69-5.81c.92-1.48,1.84-2.95,2.76-4.43.15.68.28,1.41.4,2.15-.59.89-1.19,1.79-1.77,2.68l-3.78,5.82-3.73,5.85c-1.23,1.97-2.47,3.92-3.67,5.89-2.42,3.94-4.8,7.92-7.08,11.95,2.74-3.74,5.36-7.55,7.94-11.39,1.3-1.91,2.57-3.85,3.84-5.78l3.78-5.81,3.73-5.86c.32-.52.66-1.05.99-1.58.08.74.15,1.49.21,2.28l-3.63,5.57-3.76,5.91c-1.23,1.98-2.49,3.95-3.69,5.93-2.44,3.98-4.86,7.97-7.15,12.05,2.75-3.78,5.4-7.62,8-11.49,1.31-1.93,2.58-3.88,3.88-5.82l3.81-5.86,2.62-4.13c.03.81.04,1.63.01,2.47l-1.34,2.07-3.8,5.96c-1.23,1.98-2.5,3.98-3.71,5.98-1.97,3.21-3.91,6.42-5.79,9.67-12.48,5.25-49.07,7.29-56.97,10.01ZM372.47,201.5l-2.39,3.76c-1.26,2.01-2.53,4.01-3.76,6.04-1.05,1.7-2.09,3.41-3.13,5.12-.95.91-1.94,1.69-2.96,2.3-.43.28-.95.54-1.52.8,2.09-2.93,4.12-5.91,6.13-8.89,1.33-1.94,2.61-3.91,3.91-5.86l3.85-5.92.13-.21c-.06.94-.14,1.9-.27,2.86Z"></path><path class="cls-2" d="M314.38,163.38c-.29.46-.59.92-.87,1.38l-.35.56-2.64,4.16-3.03,4.68c-.1.14-.2.29-.29.43-.03.04-.06.07-.07.11-.18.27-.36.53-.54.81l-.99-.6c.17-.27.34-.54.5-.81.03-.04.04-.08.07-.13.1-.15.2-.32.29-.47l2.99-4.72,1.27-1.95,1.47-2.25c.7-.42,1.42-.82,2.19-1.2Z"></path><path class="cls-2" d="M304.03,174.5c-.15.22-.29.45-.45.67-.59.88-1.16,1.75-1.76,2.61-.25.38-.52.75-.78,1.13-.74,1.1-1.49,2.19-2.26,3.28.27-.88.52-1.72.74-2.51.49-.81.98-1.62,1.47-2.44.31-.52.63-1.03.95-1.55.21-.36.45-.73.67-1.09.14-.22.28-.45.42-.68l1.01.59Z"></path><g><path class="cls-3" d="M152.66,303.81c-.04.6-.08,1.2-.11,1.8-.03.5-.04.99-.06,1.48-.63-.47-1.26-.91-1.84-1.27v-.61l2.01-1.4Z"></path><path class="cls-3" d="M155.3,301.99c-.04.66-.08,1.31-.13,1.97-.08,1.79-.15,3.56-.2,5.35-.54-.56-1.1-1.07-1.68-1.55.01-.71.01-1.42,0-2.12,0-.75-.01-1.51-.03-2.25l2.02-1.4Z"></path><path class="cls-3" d="M160.19,307.63c-.04,2.33-.07,4.65-.04,6.98.01,1.58.04,3.16.11,4.73l-.31.2c-.29-1.54-.78-3.34-1.61-5.18.07-1.66.14-3.34.18-5.01.04-2.35.07-4.68.04-7.02-.01-.85-.03-1.72-.04-2.57l2.05-1.42c-.06.78-.1,1.55-.14,2.33-.13,2.32-.2,4.65-.25,6.97Z"></path><path class="cls-3" d="M157.94,300.16c-.06.71-.1,1.44-.13,2.15-.13,2.33-.21,4.68-.27,7.02-.01,1.13-.01,2.25-.03,3.38-.17-.28-.34-.57-.52-.87-.34-.53-.71-1.03-1.1-1.51.03-2.12.06-4.24.03-6.37,0-.8-.01-1.61-.03-2.4l2.04-1.41Z"></path><path class="cls-3" d="M165.43,304.24c-.04,2.3-.07,4.59-.04,6.9.01,1.63.06,3.28.13,4.93l-2.3,1.44c.13-1.54.22-3.07.31-4.61.13-2.32.2-4.62.25-6.94.04-2.3.07-4.62.04-6.92,0-.96-.03-1.94-.06-2.9l2.09-1.44c-.06.89-.11,1.77-.17,2.67-.13,2.3-.2,4.59-.25,6.88Z"></path><path class="cls-3" d="M168.06,302.55c-.03,2.28-.06,4.57-.03,6.84.01,1.68.04,3.35.13,5.03l-2.33,1.45c.14-1.58.24-3.14.32-4.72.13-2.29.2-4.59.25-6.88.04-2.29.07-4.59.04-6.88,0-1.03-.03-2.05-.06-3.07l2.11-1.45c-.07.95-.13,1.9-.17,2.85-.14,2.28-.2,4.57-.27,6.84Z"></path><path class="cls-3" d="M162.81,305.94c-.04,2.3-.07,4.62-.04,6.92.01,1.62.04,3.22.11,4.83l-2.29,1.44c.13-1.51.22-3,.29-4.51.14-2.32.21-4.65.27-6.97.04-2.33.07-4.65.04-6.98-.01-.91-.03-1.83-.04-2.74l2.07-1.42c-.06.82-.11,1.66-.15,2.5-.13,2.3-.2,4.61-.25,6.92Z"></path><path class="cls-2" d="M289.17,222.05c-4.02-4.97-11.24-1.59-14.5.89l-128.06,81.04c-.2.13-.32.36-.29.61.01.24.17.45.39.54.07.03,6.18,2.68,9.19,7.41,3.25,5.1,3.17,11.04,3.17,11.11,0,.24.13.47.35.59.13.07.27.1.4.07.1-.01.2-.06.28-.11,5-3.5,122.55-86.05,124.79-88.2.2-.18.43-.39.68-.63,2.68-2.46,8.26-7.58,3.6-13.33ZM152.55,305.61c-.03.5-.04.99-.06,1.48-.63-.47-1.26-.91-1.84-1.27v-.61l2.01-1.4c-.04.6-.08,1.2-.11,1.8ZM155.17,303.96c-.08,1.79-.15,3.56-.2,5.35-.54-.56-1.1-1.07-1.68-1.55.01-.71.01-1.42,0-2.12,0-.75-.01-1.51-.03-2.25l2.02-1.4c-.04.66-.08,1.31-.13,1.97ZM157.81,302.31c-.13,2.33-.21,4.68-.27,7.02-.01,1.13-.01,2.25-.03,3.38-.17-.28-.34-.57-.52-.87-.34-.53-.71-1.03-1.1-1.51.03-2.12.06-4.24.03-6.37,0-.8-.01-1.61-.03-2.4l2.04-1.41c-.06.71-.1,1.44-.13,2.15ZM160.44,300.66c-.13,2.32-.2,4.65-.25,6.97-.04,2.33-.07,4.65-.04,6.98.01,1.58.04,3.16.11,4.73l-.31.2c-.29-1.54-.78-3.34-1.61-5.18.07-1.66.14-3.34.18-5.01.04-2.35.07-4.68.04-7.02-.01-.85-.03-1.72-.04-2.57l2.05-1.42c-.06.78-.1,1.55-.14,2.33ZM162.77,312.87c.01,1.62.04,3.22.11,4.83l-2.29,1.44c.13-1.51.22-3,.29-4.51.14-2.32.21-4.65.27-6.97.04-2.33.07-4.65.04-6.98-.01-.91-.03-1.83-.04-2.74l2.07-1.42c-.06.82-.11,1.66-.15,2.5-.13,2.3-.2,4.61-.25,6.92-.04,2.3-.07,4.62-.04,6.92ZM165.39,311.13c.01,1.63.06,3.28.13,4.93l-2.3,1.44c.13-1.54.22-3.07.31-4.61.13-2.32.2-4.62.25-6.94.04-2.3.07-4.62.04-6.92,0-.96-.03-1.94-.06-2.9l2.09-1.44c-.06.89-.11,1.77-.17,2.67-.13,2.3-.2,4.59-.25,6.88-.04,2.3-.07,4.59-.04,6.9ZM168.03,309.39c.01,1.68.04,3.35.13,5.03l-2.33,1.45c.14-1.58.24-3.14.32-4.72.13-2.29.2-4.59.25-6.88.04-2.29.07-4.59.04-6.88,0-1.03-.03-2.05-.06-3.07l2.11-1.45c-.07.95-.13,1.9-.17,2.85-.14,2.28-.2,4.57-.27,6.84-.03,2.28-.06,4.57-.03,6.84ZM170.66,307.66c.01,1.7.06,3.41.14,5.11l-2.35,1.47c.14-1.61.24-3.21.32-4.83.14-2.28.21-4.55.27-6.83.04-2.29.07-4.57.04-6.85-.01-1.07-.04-2.14-.07-3.21l2.12-1.48c-.07,1.01-.13,2.02-.18,3.03-.13,2.26-.2,4.52-.25,6.8-.04,2.26-.07,4.52-.04,6.8ZM173.28,305.91c.03,1.75.06,3.48.15,5.21l-2.36,1.48c.14-1.65.25-3.28.34-4.93.13-2.26.2-4.54.25-6.8.04-2.26.07-4.52.04-6.8-.01-1.13-.04-2.25-.07-3.38l2.15-1.49c-.08,1.07-.15,2.14-.21,3.21-.13,2.25-.2,4.5-.25,6.74-.04,2.26-.07,4.51-.04,6.76ZM175.92,304.18c.01,1.76.06,3.53.14,5.3l-2.37,1.48c.15-1.68.27-3.35.35-5.04.13-2.25.2-4.5.25-6.74.04-2.25.07-4.51.04-6.76-.01-1.19-.04-2.36-.08-3.55l2.18-1.51c-.08,1.13-.17,2.26-.22,3.39-.13,2.23-.2,4.47-.25,6.7-.03,2.23-.06,4.47-.03,6.72ZM178.54,302.44c.01,1.8.07,3.6.15,5.4l-2.39,1.49c.15-1.72.27-3.43.36-5.14.13-2.23.18-4.47.25-6.72.03-2.23.06-4.47.03-6.7-.01-1.24-.04-2.47-.08-3.71l2.19-1.51c-.08,1.17-.17,2.36-.24,3.55-.13,2.22-.18,4.44-.24,6.67-.04,2.22-.07,4.44-.04,6.66ZM181.17,300.69c.03,1.83.07,3.67.17,5.5l-2.42,1.51c.17-1.75.28-3.5.38-5.25.13-2.22.2-4.44.25-6.66.04-2.22.07-4.44.03-6.66-.01-1.3-.04-2.58-.08-3.87l2.22-1.54c-.11,1.24-.2,2.49-.25,3.73-.13,2.21-.2,4.41-.25,6.62-.04,2.21-.07,4.41-.04,6.62ZM183.97,304.54l-2.44,1.52c.18-1.79.29-3.57.39-5.35.13-2.21.2-4.41.25-6.62.04-2.21.07-4.43.04-6.63-.01-1.34-.06-2.68-.11-4.02l2.25-1.55c-.11,1.3-.2,2.61-.27,3.91-.13,2.19-.2,4.38-.25,6.58-.04,2.19-.06,4.38-.03,6.58.01,1.86.07,3.73.17,5.58ZM186.43,297.22c.03,1.9.07,3.78.18,5.68l-2.46,1.54c.18-1.81.31-3.64.4-5.46.13-2.19.18-4.38.24-6.58.04-2.19.07-4.38.04-6.58-.01-1.4-.06-2.79-.11-4.19l2.26-1.56c-.11,1.35-.21,2.72-.28,4.09-.13,2.18-.2,4.34-.25,6.52-.03,2.18-.06,4.36-.03,6.53ZM189.06,295.48c.03,1.91.08,3.84.2,5.77l-2.48,1.55c.2-1.86.32-3.71.42-5.57.13-2.16.2-4.34.25-6.52.03-2.18.06-4.36.03-6.53-.01-1.45-.06-2.9-.13-4.36l1.07-.73,1.23-.85s0,.04-.01.07c-.11,1.4-.21,2.79-.29,4.2-.13,2.15-.18,4.31-.24,6.48-.04,2.16-.07,4.33-.04,6.49ZM191.89,299.6l-2.51,1.58c.2-1.9.34-3.8.43-5.68.13-2.16.2-4.33.25-6.49.04-2.15.06-4.31.03-6.48-.01-1.48-.06-2.95-.13-4.43v-.08l2.32-1.61c0,.08-.01.15-.01.24-.13,1.4-.22,2.81-.31,4.2-.11,2.15-.18,4.3-.24,6.45-.04,2.14-.06,4.29-.03,6.44.01,1.95.07,3.91.2,5.86ZM194.32,292.01c.03,1.98.08,3.96.21,5.95l-2.53,1.59c.2-1.93.34-3.87.45-5.79.11-2.14.18-4.29.24-6.44.04-2.15.07-4.3.04-6.44-.03-1.48-.07-2.96-.14-4.44l2.3-1.45c-.13,1.4-.22,2.81-.29,4.22-.13,2.14-.2,4.26-.25,6.39-.03,2.14-.06,4.27-.03,6.41ZM194.61,297.91c.21-1.97.35-3.94.46-5.89.13-2.14.2-4.27.24-6.39.04-2.14.07-4.27.04-6.41-.03-1.48-.07-2.96-.14-4.44l2.32-1.47c-.13,1.42-.24,2.83-.31,4.24-.13,2.11-.2,4.23-.24,6.35-.04,2.11-.07,4.23-.03,6.35.01,2.01.07,4.03.21,6.06l-2.55,1.59ZM257.53,250c-.03.15-.06.29-.1.43.03,1.17.07,2.35.14,3.52-.75.54-1.54,1.09-2.32,1.65-.03.29-.06.57-.08.87-.06.04-.11.08-.17.13-.03-.27-.04-.52-.06-.78-.77.54-1.55,1.1-2.33,1.66-.03.28-.06.57-.08.87-.06.03-.11.07-.15.11-.03-.27-.04-.52-.06-.78-.77.56-1.55,1.1-2.35,1.66-.03.29-.06.59-.1.87-.04.04-.08.07-.13.1-.03-.25-.04-.5-.06-.77-.78.56-1.56,1.12-2.36,1.68-.03.28-.06.57-.1.87-.04.03-.08.06-.11.08-.03-.25-.04-.5-.06-.77-.78.56-1.58,1.12-2.37,1.68-.03.29-.06.59-.1.88-.03.01-.07.04-.1.07-.03-.25-.04-.52-.06-.77-.8.56-1.59,1.12-2.39,1.69-.03.29-.06.57-.1.87-.03.03-.06.04-.08.07-.03-.27-.04-.52-.06-.77-.8.56-1.59,1.12-2.4,1.69-.03.29-.07.59-.1.88-.03.01-.06.03-.08.04l-.04-.75c-.81.56-1.61,1.13-2.42,1.7-.03.28-.07.57-.1.87-.03.01-.04.03-.07.04-.01-.25-.03-.5-.04-.77-.81.57-1.62,1.14-2.43,1.72-.04.29-.07.59-.1.87-.01.01-.03.03-.06.04-.01-.27-.03-.52-.04-.77-.81.57-1.63,1.14-2.44,1.72-.04.29-.07.59-.1.88-.01,0-.03.01-.04.01-.01-.25-.03-.5-.04-.77-.82.59-1.63,1.16-2.46,1.73-.04.29-.07.59-.1.88-.01,0-.01.01-.03.01-.01-.25-.03-.52-.06-.77-.81.57-1.63,1.16-2.46,1.75-.04.29-.07.57-.1.87t-.01.01c-.01-.27-.03-.52-.06-.77-.82.57-1.65,1.16-2.47,1.75-.04.28-.07.56-.1.84-.01-.25-.04-.49-.06-.74-.82.59-1.66,1.17-2.48,1.76-.03.25-.06.5-.1.77-.01-.22-.03-.45-.04-.67-.84.59-1.66,1.17-2.51,1.76-.01.24-.04.46-.07.68-.01-.2-.03-.39-.04-.6-.84.6-1.68,1.19-2.53,1.77-.01.21-.04.42-.06.61-.01-.18-.03-.36-.04-.53-.84.59-1.69,1.19-2.54,1.79-.01.17-.03.35-.06.53-.01-.15-.01-.32-.03-.47-.85.6-1.7,1.2-2.55,1.8-.01.15-.03.31-.04.46-.01-.14-.01-.28-.03-.42-.85.61-1.7,1.21-2.57,1.81-.01.13-.03.25-.04.38,0-.11-.01-.22-.01-.34-.87.6-1.72,1.2-2.58,1.81,0,.1-.01.21-.03.31-.01-.08-.01-.18-.01-.28-.87.61-1.73,1.21-2.6,1.83,0,.07-.01.14-.01.2v.04s-.01-.03-.01-.03l-2.37,1.48-.22.14c-.01.07-.01.13-.03.2,0-.06,0-.11-.01-.17l-2.58,1.61c.22-2,.36-4.01.47-6,.13-2.11.2-4.23.25-6.35,0-.4,0-.8.01-1.2-.42-1.27-.4-2.64.01-3.88v-1.27c-.01-1.48-.07-2.96-.14-4.45l2.32-1.47c-.13,1.42-.22,2.83-.31,4.26,0,.07,0,.13-.01.2.17-.14.35-.28.53-.4l.24-.15c-.03-1.35-.07-2.72-.14-4.09l2.33-1.47c.03-.28.04-.56.07-.82l.2-.13c.01.25.01.5.03.75l2.33-1.47c.03-.28.06-.56.08-.84l.18-.11c.01.25.01.5.03.75l2.35-1.48c.03-.28.04-.54.07-.82l.18-.11c.01.25.01.5.03.75l2.35-1.48c.03-.28.06-.56.08-.82l.15-.11c.03.25.03.5.04.75l2.36-1.48c.03-.28.04-.56.07-.84l.15-.1c.03.25.03.5.04.75l2.36-1.49c.03-.27.06-.54.08-.82l.14-.1c.03.25.03.5.04.75l2.37-1.49c.03-.28.04-.56.07-.82l.14-.08c.01.24.03.49.04.74l2.37-1.49c.03-.28.06-.56.08-.84l.13-.07c.01.24.03.49.04.74l2.37-1.49c.03-.28.06-.56.1-.84l.11-.07c.01.25.03.49.04.74l2.39-1.51c.03-.27.06-.54.08-.82l.11-.07c.01.25.03.5.04.74l2.39-1.51c.04-.28.07-.56.1-.84l.1-.06c.01.25.03.5.04.74l2.4-1.51c.03-.28.06-.56.08-.84l.1-.06.04.75,2.42-1.52c.03-.28.06-.56.08-.84l.08-.06.04.75,2.42-1.54c.03-.28.06-.56.1-.84l.07-.04.04.75,2.43-1.54c.03-.28.06-.56.08-.84l.06-.04c.03.25.04.5.06.75l2.43-1.54c.03-.28.06-.57.1-.85l.04-.03c.03.25.04.5.06.75l2.44-1.55c.03-.28.06-.56.1-.84l.03-.03c.03.25.04.5.06.75l2.44-1.55c.04-.28.07-.56.1-.84h.03c.03.22.04.47.06.73l2.46-1.55c.03-.29.06-.57.1-.85h.01c.01.24.04.49.06.74l2.46-1.56c-.17,1.47-.28,2.93-.38,4.4.1.03.2.03.29.06.15.03.31.07.45.11-.03-1.56-.08-3.11-.2-4.66l2.47-1.56c.03-.27.06-.53.1-.8.01.24.03.47.06.7l2.49-1.56c-.2,1.52-.31,3.06-.4,4.58-.11,1.77-.18,3.56-.22,5.33-.01.73-.01,1.45-.03,2.18.28.92.32,1.91.13,2.89ZM260.06,248.52c.03,1.19.07,2.39.14,3.57-.75.54-1.52,1.09-2.3,1.63.13-1.14.21-2.3.28-3.45.13-1.77.18-3.56.22-5.33.03-1.77.06-3.55.01-5.32-.03-1.58-.08-3.14-.21-4.7l2.48-1.58c-.18,1.54-.31,3.07-.4,4.61-.11,1.76-.17,3.52-.22,5.28-.03,1.77-.04,3.53,0,5.29ZM262.68,246.78c.03,1.16.07,2.3.14,3.46-.74.53-1.51,1.07-2.29,1.62.11-1.1.21-2.22.28-3.32.11-1.76.17-3.52.22-5.28.03-1.76.04-3.52,0-5.29-.03-1.56-.08-3.13-.22-4.7l2.51-1.58c-.2,1.54-.32,3.07-.42,4.62-.11,1.75-.17,3.49-.21,5.24-.03,1.75-.06,3.49-.01,5.24ZM265.32,245.05c.01,1.1.06,2.22.13,3.34-.74.52-1.49,1.06-2.26,1.61.1-1.06.18-2.12.25-3.18.11-1.75.17-3.49.22-5.25.03-1.75.04-3.49,0-5.24-.03-1.56-.08-3.14-.22-4.72l2.53-1.59c-.2,1.55-.34,3.1-.43,4.65-.11,1.73-.17,3.46-.21,5.19-.03,1.73-.04,3.46,0,5.19ZM267.95,243.3c.03,1.07.07,2.15.13,3.21-.73.53-1.48,1.06-2.25,1.61.1-1.02.18-2.04.24-3.06.13-1.73.18-3.46.22-5.19.03-1.73.04-3.46.01-5.19-.04-1.58-.1-3.16-.24-4.72l2.53-1.61c-.2,1.55-.32,3.1-.42,4.66-.11,1.7-.18,3.42-.22,5.14-.03,1.72-.04,3.43,0,5.15ZM270.57,241.57c.03,1.02.07,2.05.13,3.09-.73.52-1.47,1.05-2.23,1.59.1-.98.17-1.95.24-2.93.11-1.7.17-3.42.21-5.14.03-1.72.06-3.43.01-5.15-.04-1.58-.1-3.16-.24-4.73l2.54-1.61c-.21,1.55-.34,3.11-.43,4.66-.11,1.7-.17,3.41-.22,5.11-.01,1.7-.04,3.41,0,5.11ZM273.21,239.82c.01.99.06,1.97.11,2.96-.71.5-1.45,1.03-2.22,1.58.1-.92.17-1.86.22-2.78.11-1.7.17-3.41.22-5.11.03-1.7.04-3.39,0-5.1-.03-1.59-.1-3.17-.24-4.75l2.55-1.62c-.21,1.56-.35,3.13-.45,4.69-.11,1.69-.17,3.38-.21,5.05-.03,1.69-.04,3.38,0,5.07ZM275.83,238.08c.01.95.06,1.88.11,2.83-.7.49-1.42,1.02-2.21,1.56.08-.88.17-1.76.22-2.64.11-1.68.17-3.36.21-5.05.03-1.69.04-3.38,0-5.07-.03-1.58-.1-3.17-.24-4.75l1.23-.78c.42-.2.85-.38,1.3-.56-.2,1.48-.32,2.95-.42,4.43-.11,1.68-.17,3.34-.21,5.01-.03,1.68-.04,3.35,0,5.01ZM278.68,226.41c-.13,1.65-.18,3.31-.22,4.97-.03,1.65-.04,3.31,0,4.97.03.89.06,1.79.11,2.68-.67.49-1.4,1.01-2.18,1.56.07-.82.14-1.66.2-2.49.11-1.68.17-3.35.21-5.01.03-1.68.04-3.35,0-5.03-.03-1.49-.08-2.99-.22-4.48.81-.32,1.62-.59,2.42-.8-.14,1.2-.24,2.4-.31,3.62ZM281.31,224.76c-.11,1.63-.17,3.28-.21,4.91-.03,1.65-.04,3.29,0,4.93.01.85.06,1.69.1,2.54-.63.45-1.35.98-2.16,1.56.07-.78.14-1.56.18-2.35.11-1.65.17-3.31.22-4.97.03-1.66.04-3.31,0-4.97-.03-1.23-.08-2.47-.17-3.7.77-.2,1.51-.31,2.22-.35-.07.8-.14,1.59-.18,2.39ZM283.93,223.1c-.11,1.63-.17,3.25-.21,4.89-.03,1.62-.04,3.25,0,4.89.01.77.06,1.55.08,2.33-.32.25-1.05.8-2.14,1.59.07-.73.13-1.45.18-2.18.11-1.63.17-3.28.21-4.91.03-1.65.04-3.29,0-4.93-.01-.81-.04-1.61-.1-2.42.71,0,1.38.08,2,.28,0,.15-.01.31-.03.46ZM286.35,231.13c.01.54.04,1.09.06,1.63-.6.63-1.21,1.19-1.73,1.66-.13.1-.24.21-.34.31.06-.61.1-1.23.14-1.84.11-1.63.17-3.25.21-4.89.03-1.62.04-3.25,0-4.89v-.2c.45.22.87.52,1.24.89.18.17.34.35.49.54-.03.64-.06,1.28-.07,1.93-.03,1.62-.04,3.24,0,4.84ZM287.74,231.24c-.24.29-.47.57-.71.85.03-.32.06-.63.07-.95.11-1.61.17-3.22.21-4.83.01-.15.01-.29.01-.45.87,2.02.66,4.17.42,5.37Z"></path><path class="cls-2" d="M257.41,247.11c-.17-.6-.43-1.19-.8-1.72-.24-.35-.52-.68-.81-.98-.28-.27-.57-.52-.89-.73-.53-.35-1.13-.61-1.76-.78-.14-.04-.29-.08-.45-.11-.1-.03-.2-.03-.29-.06-.64-.08-1.3-.08-1.93.03-.03-.95-.08-1.91-.15-2.86-.01-.25-.04-.5-.06-.74h-.01c-.04.28-.07.56-.1.85-.11.95-.21,1.91-.28,2.88-.63.18-1.23.45-1.79.82l-.27.17c-.03-.77-.07-1.55-.13-2.32-.01-.25-.03-.5-.06-.74h-.03c-.03.29-.06.57-.1.85-.1.87-.18,1.72-.24,2.58l-2.08,1.38c-.03-.81-.07-1.61-.13-2.42-.01-.25-.03-.5-.06-.75l-.03.03c-.04.28-.07.56-.1.84-.11.89-.18,1.79-.25,2.69l-2.05,1.37c-.04-.84-.08-1.68-.14-2.51-.01-.25-.03-.5-.06-.75l-.04.03c-.04.28-.07.57-.1.85-.1.92-.18,1.86-.25,2.78l-2.04,1.37c-.03-.87-.08-1.75-.14-2.61-.01-.25-.03-.5-.06-.75l-.06.04c-.03.28-.06.56-.08.84-.11.96-.2,1.93-.27,2.89l-2.02,1.35c-.03-.91-.07-1.81-.14-2.71l-.04-.75-.07.04c-.04.28-.07.56-.1.84-.11,1.01-.2,2-.27,2.99l-2.01,1.35c-.03-.94-.07-1.87-.14-2.81l-.04-.75-.08.06c-.03.28-.06.56-.08.84-.11,1.02-.21,2.05-.28,3.09l-2,1.34c-.03-.96-.07-1.94-.14-2.9l-.04-.75-.1.06c-.03.28-.06.56-.08.84-.11,1.06-.21,2.12-.28,3.2l-1.98,1.33c-.03-1.01-.07-2.01-.14-3.02-.01-.24-.03-.49-.04-.74l-.1.06c-.03.28-.06.56-.1.84-.11,1.1-.2,2.19-.27,3.29l-1.98,1.33c-.03-1.03-.07-2.07-.14-3.11-.01-.24-.03-.49-.04-.74l-.11.07c-.03.28-.06.56-.08.82-.11,1.14-.21,2.28-.28,3.41l-1.97,1.31c-.03-1.07-.07-2.14-.14-3.21-.01-.25-.03-.49-.04-.74l-.11.07c-.04.28-.07.56-.1.84-.11,1.16-.21,2.33-.28,3.49l-1.95,1.31c-.03-1.1-.07-2.21-.14-3.31-.01-.25-.03-.5-.04-.74l-.13.07c-.03.28-.06.56-.08.84-.13,1.2-.21,2.4-.29,3.6l-1.94,1.3c-.03-1.13-.07-2.26-.14-3.41-.01-.25-.03-.5-.04-.74l-.14.08c-.03.27-.04.54-.07.82-.13,1.23-.22,2.47-.29,3.7l-1.94,1.3c-.03-1.17-.07-2.33-.14-3.5-.01-.25-.01-.5-.04-.75l-.14.1c-.03.28-.06.56-.08.82-.11,1.27-.22,2.54-.29,3.81l-1.93,1.28c-.03-1.2-.07-2.4-.14-3.6-.01-.25-.01-.5-.04-.75l-.15.1c-.03.28-.04.56-.07.84-.13,1.3-.22,2.6-.31,3.89l-1.91,1.28c-.03-1.23-.07-2.46-.14-3.7-.01-.25-.01-.5-.04-.75l-.15.11c-.03.27-.06.54-.08.82-.13,1.33-.22,2.67-.31,4.01l-1.9,1.27c-.03-1.26-.07-2.53-.14-3.8-.01-.25-.01-.5-.03-.75l-.18.11c-.03.28-.04.54-.07.82-.13,1.37-.24,2.74-.31,4.1l-1.9,1.27c-.03-1.3-.07-2.6-.14-3.89-.01-.25-.01-.5-.03-.75l-.18.11c-.03.28-.06.56-.08.84-.13,1.4-.24,2.79-.31,4.2l-1.88,1.26c-.03-1.33-.07-2.65-.14-3.99-.01-.25-.01-.5-.03-.75l-.2.13c-.03.27-.04.54-.07.82-.14,1.42-.24,2.85-.32,4.27v.03l-1.87,1.26-.24.15c-.18.13-.36.27-.53.4-.88.74-1.51,1.7-1.86,2.74-.42,1.24-.43,2.61-.01,3.88.17.52.4,1.02.73,1.51.25.38.56.73.88,1.03,0,1.09,0,2.18.01,3.25.03,2.05.08,4.1.22,6.16.01.06.01.11.01.17.01-.07.01-.13.03-.2.22-2.04.38-4.06.49-6.1.04-.87.08-1.73.11-2.58.54.35,1.13.6,1.76.77v.06c.03,2.01.08,4.03.24,6.06v.18s0,.01.01.03v-.04c0-.06.01-.13.01-.2.22-1.98.38-3.95.49-5.93.59.08,1.17.08,1.75,0,.06-.01.11-.03.17-.04.04,1.38.1,2.76.2,4.15,0,.1,0,.2.01.28.01-.1.03-.21.03-.31.17-1.42.29-2.83.38-4.26.6-.17,1.19-.43,1.72-.8l.32-.21c.03,1.14.08,2.3.17,3.45,0,.11.01.22.01.34.01-.13.03-.25.04-.38.15-1.27.25-2.53.35-3.8l2.05-1.37c.04,1.12.08,2.23.17,3.35.01.14.01.28.03.42.01-.15.03-.31.04-.46.14-1.23.25-2.47.34-3.7l2.05-1.38c.04,1.1.1,2.19.17,3.28.01.15.01.32.03.47.03-.18.04-.36.06-.53.14-1.2.25-2.4.34-3.6l2.05-1.38c.03,1.06.08,2.12.15,3.2.01.17.03.35.04.53.01-.2.04-.4.06-.61.14-1.16.24-2.33.32-3.49l2.05-1.38c.03,1.03.08,2.07.15,3.1.01.21.03.4.04.6.03-.22.06-.45.07-.68.14-1.13.24-2.26.31-3.41l2.07-1.37c.03,1.01.07,2.01.14,3.02.01.22.03.45.04.67.04-.27.07-.52.1-.77.11-1.1.21-2.21.29-3.31l2.05-1.38.57-.38,2.05-1.38c.03.95.08,1.9.14,2.85.03.25.04.5.06.77t.01-.01c.03-.29.06-.57.1-.87.11-1.05.2-2.08.28-3.13l2.05-1.37c.03.92.07,1.83.13,2.75.03.25.04.52.06.77.01,0,.01-.01.03-.01.03-.29.06-.59.1-.88.11-1.01.2-2.01.27-3.02l2.05-1.37c.03.88.07,1.77.14,2.65.01.27.03.52.04.77.01,0,.03-.01.04-.01.03-.29.06-.59.1-.88.1-.98.18-1.94.25-2.92l2.05-1.38c.03.87.07,1.72.14,2.58.01.25.03.5.04.77.03-.01.04-.03.06-.04.03-.28.06-.57.1-.87.1-.95.18-1.88.25-2.83l2.05-1.37c.03.82.07,1.66.13,2.48.01.27.03.52.04.77.03-.01.04-.03.07-.04.03-.29.07-.59.1-.87.1-.92.18-1.83.24-2.74l2.05-1.37c.03.8.07,1.59.13,2.4l.04.75s.06-.03.08-.04c.03-.29.07-.59.1-.88.1-.88.17-1.75.24-2.62l2.04-1.37c.03.77.07,1.54.13,2.3.01.25.03.5.06.77.03-.03.06-.04.08-.07.04-.29.07-.57.1-.87.08-.85.17-1.69.22-2.53l2.05-1.38c.03.74.06,1.48.11,2.22.01.25.03.52.06.77.03-.03.07-.06.1-.07.04-.29.07-.59.1-.88.08-.81.15-1.62.22-2.43l2.04-1.37c.03.71.07,1.41.11,2.12.01.27.03.52.06.77.03-.03.07-.06.11-.08.04-.29.07-.59.1-.87.08-.78.15-1.55.21-2.33l2.05-1.37c.01.67.06,1.35.1,2.02.01.27.03.52.06.77.04-.03.08-.06.13-.1.04-.28.07-.57.1-.87.07-.74.14-1.48.2-2.22l2.05-1.38c.03.66.06,1.3.1,1.94.01.27.03.52.06.78.04-.04.1-.08.15-.11.03-.29.06-.59.08-.87.07-.71.14-1.42.2-2.12l2.04-1.38c.03.61.07,1.23.1,1.84.01.27.03.52.06.78.06-.04.11-.08.17-.13.03-.29.06-.57.08-.87.07-.68.14-1.38.18-2.07.98-.81,1.66-1.88,2-3.1.04-.14.07-.28.1-.43.2-.98.15-1.97-.13-2.89ZM255.38,249.58c-.2,1.03-.8,1.93-1.68,2.51l-47.72,32c-.88.59-1.93.8-2.96.59-1.03-.21-1.93-.8-2.53-1.68-1.2-1.8-.73-4.26,1.09-5.47l47.73-32c.49-.32,1.03-.53,1.61-.63.43-.06.89-.06,1.35.04,1.03.2,1.93.8,2.51,1.68.59.87.8,1.93.59,2.96Z"></path><path class="cls-1" d="M223.87,274.74c-.07,1.06-.17,2.14-.28,3.21-.04.28-.07.56-.1.84-.01-.25-.04-.49-.06-.74-.06-.98-.11-1.95-.14-2.93l.57-.38Z"></path><path class="cls-2" d="M255.8,244.42c-.28-.27-.57-.52-.89-.73.03-.81.07-1.62.13-2.43.08-1.54.21-3.06.39-4.58.03-.27.06-.53.1-.8.01.24.03.47.06.7.11,1.56.18,3.13.21,4.69.01,1.05.01,2.09.01,3.14Z"></path><path class="cls-2" d="M151.15,314.28c-2.07-2.16-4.84-3.39-7.83-3.45-6.17-.13-11.29,4.77-11.42,10.94-.14,6.16,4.77,11.28,10.93,11.42.66.01,1.3-.03,1.93-.13,5.28-.8,9.38-5.3,9.49-10.82.07-2.99-1.03-5.82-3.1-7.97ZM142.89,331c-4.96-.11-8.91-4.23-8.8-9.19,0-.42.06-.82.11-1.24,1.03-3.02,3.62-6.88,10.05-5.92,4.69.71,6.8,3.8,7.76,6.44.03.38.06.74.04,1.12-.1,4.96-4.22,8.89-9.17,8.8Z"></path></g><path class="cls-3" d="M255.38,249.58c-.2,1.03-.8,1.93-1.68,2.51l-47.72,32c-.88.59-1.93.8-2.96.59-1.03-.21-1.93-.8-2.53-1.68-1.2-1.8-.73-4.26,1.09-5.47l47.73-32c.49-.32,1.03-.53,1.61-.63.43-.06.89-.06,1.35.04,1.03.2,1.93.8,2.51,1.68.59.87.8,1.93.59,2.96Z"></path><path class="cls-2" d="M321.07,202.56c-.07.17-.14.34-.22.52-.38.84-.8,1.66-1.24,2.46-.53.98-1.1,1.91-1.68,2.85-.59.92-1.19,1.84-1.84,2.74-.53.75-1.09,1.48-1.69,2.19-.11.14-.22.28-.35.42.07-.17.14-.34.22-.5.38-.84.8-1.66,1.24-2.47.53-.96,1.09-1.91,1.68-2.85.59-.92,1.19-1.84,1.84-2.74.53-.74,1.09-1.48,1.68-2.19.13-.14.24-.28.36-.42Z"></path><path class="cls-2" d="M317.72,200.66c-.07.18-.15.35-.22.52-.39.85-.82,1.69-1.27,2.51-.53.99-1.1,1.94-1.69,2.9-.6.94-1.21,1.87-1.87,2.79-.64.91-1.31,1.81-2.07,2.67.45-1.05.95-2.05,1.49-3.03.53-.99,1.12-1.95,1.69-2.9.61-.94,1.21-1.88,1.87-2.79.54-.77,1.1-1.52,1.7-2.23.13-.15.24-.29.36-.43Z"></path><path class="cls-2" d="M313.99,198.4c-.07.17-.15.34-.22.5-.42.89-.87,1.77-1.35,2.62-.56,1.02-1.16,2.02-1.77,3-.63.99-1.26,1.95-1.94,2.9-.67.95-1.38,1.88-2.15,2.78.46-1.09,1.01-2.12,1.56-3.14.57-1.02,1.17-2.01,1.79-3,.63-.98,1.26-1.95,1.94-2.9.57-.8,1.16-1.59,1.8-2.35.11-.14.22-.28.35-.42Z"></path><path class="cls-2" d="M310.64,196.5c-.08.17-.17.32-.25.49-.43.89-.92,1.75-1.42,2.6-.6,1.01-1.24,1.98-1.88,2.95-.66.96-1.33,1.91-2.04,2.85-.71.92-1.45,1.83-2.25,2.69.5-1.06,1.07-2.08,1.68-3.09.6-1.01,1.23-1.98,1.88-2.95.66-.96,1.33-1.91,2.04-2.85.6-.78,1.21-1.55,1.87-2.29.13-.14.25-.28.38-.4Z"></path></g></svg>