<svg xmlns="http://www.w3.org/2000/svg" id="Layer_1" data-name="Layer 1" viewBox="0 0 500 500"><defs><style>      .cls-1 {        fill: #01008c;      }      .cls-1, .cls-2, .cls-3, .cls-4, .cls-5 {        stroke-width: 0px;      }      .cls-3 {        fill: none;      }      .cls-4 {        fill: #fff;      }      .cls-5 {        fill: #007aff;      }    </style></defs><g><path class="cls-1" d="M163.07,323.22c-3.13,5.22-7.71,7.02-13.29,7.17-7.77.2-15.52.71-23.29.97-8.18.27-14.76-5.44-15.35-13.61-.75-10.43-1.18-20.89-1.73-31.34-.41-7.82-.85-15.64-1.18-23.46-.39-9.17,5.5-15.57,14.64-16.02,7.95-.38,15.9-.67,23.85-1.1,4.99-.27,9.14,1.29,12.21,5.28.77,1,1.45.59,2.28.39,6.52-1.5,12.97-3.48,19.57-4.37,13.72-1.84,27.08.54,40.15,4.82,6.42,2.1,12.75,4.65,19.32,6.08,15.13,3.29,30.47,5.3,45.97,5.92,2,.08,4,.26,6,.42,5.91.49,10.53,5.69,10.32,11.6-.22,6.03-5.01,10.82-10.99,10.93-15.29.29-30.57.54-45.86.82-.69.01-1.4-.02-2.05.15-1.58.43-2.44,1.53-2.36,3.18.09,1.65,1.06,2.64,2.67,2.93.55.1,1.12.05,1.69.05,15.04-.08,30.08-.18,45.11-.24,6.49-.03,12.49-1.75,18.03-5.1,20.75-12.53,41.5-25.07,62.24-37.6,4.71-2.85,9.53-3.06,14.23-.19,4.51,2.76,6.83,6.92,6.51,12.3-.26,4.51-2.58,7.83-6.24,10.4-18.77,13.17-37.46,26.44-56.28,39.54-6.36,4.43-12.75,8.94-19.57,12.57-11.1,5.9-23.22,7.64-35.72,6.82-18.19-1.2-36.38-2.38-54.57-3.58-15.69-1.04-31.38-2.11-47.07-3.16-3.17-.21-6.46.04-9.23-2.57ZM136.17,301.96c-4.5-.05-8.32,3.68-8.37,8.16-.05,4.42,3.6,8.15,8.06,8.25,4.5.1,8.29-3.62,8.34-8.16.05-4.46-3.6-8.2-8.03-8.25Z"></path><path class="cls-1" d="M362.26,247.11c-17.15,10.46-33.86,20.66-50.96,31.09.37-4.66-.46-8.69-2.74-12.54,3.77-1.95,7.42-3.85,11.08-5.73,9.4-4.86,18.79-9.74,28.22-14.55,4.6-2.34,9.07-1.92,13.31,1.03.26.18.52.34,1.1.71Z"></path><path class="cls-1" d="M336.97,242.83c-3.25,1.62-6.43,3.2-9.62,4.78-7.62,3.79-15.24,7.57-22.84,11.41-1.12.56-1.94.4-3.1-.03-2.78-1.04-5.68-1.78-8.56-2.5-1.12-.28-2.33-.22-3.57-.69.65-.28,1.3-.58,1.96-.84,11.42-4.47,22.84-8.94,34.26-13.42,4.15-1.63,8.66-1.18,11.48,1.29Z"></path></g><g><g><g><path class="cls-2" d="M281.3,199.17s0,0,0,.02h.04l-.03-.02ZM262.72,214.44s.03.04.04.06c.34.17.74.21,1.16.09.1-.03.21-.08.34-.15h-1.54ZM262.72,214.44s.03.04.04.06c.34.17.74.21,1.16.09.1-.03.21-.08.34-.15h-1.54ZM262.72,214.44s.03.04.04.06c.34.17.74.21,1.16.09.1-.03.21-.08.34-.15h-1.54ZM263.14,215.02s-.06-.07-.08-.11c-.11-.14-.21-.28-.3-.41,0-.02-.02-.04-.04-.06h-4.78c.81,1.71,1.88,3.26,3.18,4.63h6.9c-1.92-.95-3.59-2.34-4.88-4.04ZM286.96,194.56h-18.97s-6.91,0-6.91,0c-1.29,1.35-2.36,2.91-3.16,4.63h21.07s11.14,0,11.14,0c-.8-1.72-1.87-3.27-3.18-4.63ZM262.72,214.44s.03.04.04.06c.34.17.74.21,1.16.09.1-.03.21-.08.34-.15h-1.54ZM262.72,214.44s.03.04.04.06c.34.17.74.21,1.16.09.1-.03.21-.08.34-.15h-1.54ZM285.35,214.43h-20.23s0,0,0,0h-7.17c.81,1.71,1.88,3.26,3.18,4.63h6.9s18.92,0,18.92,0c1.29-1.36,2.37-2.92,3.18-4.63h-4.77ZM318,202.05c.15-.71.33-1.42.53-2.14-.22.7-.38,1.42-.53,2.14ZM318.97,214.95s.02.09.04.14c0,.02.02.05.03.07.03.07.05.14.09.21-.05-.14-.1-.28-.16-.41ZM318.75,214.31s-.03-.08-.04-.12c-.06-.18-.12-.36-.18-.54.04.15.09.3.14.44.04.15.09.3.15.44-.02-.08-.05-.15-.07-.23ZM262.72,214.44s.03.04.04.06c.34.17.74.21,1.16.09.1-.03.21-.08.34-.15h-1.54ZM281.3,199.17s0,0,0,.02h.04l-.03-.02Z"></path><path class="cls-1" d="M291.64,204.08h-30.97s-4.24,0-4.24,0c.12-.79.29-1.56.5-2.31.27-.9.59-1.76.99-2.58h21.07s11.14,0,11.14,0c.4.83.73,1.7.99,2.58.23.75.39,1.52.51,2.31Z"></path></g><path class="cls-4" d="M291.85,206.82c0,.13,0,.27,0,.39,0,.78-.08,1.56-.2,2.31h-4.24l-26.73.02h-4.24c-.12-.76-.19-1.53-.2-2.32,0-.13,0-.27,0-.39,0-.15,0-.29,0-.43,0-.79.08-1.56.2-2.31h30.98s4.23,0,4.23,0c.12.76.19,1.53.2,2.31,0,.15,0,.29,0,.43Z"></path><path class="cls-2" d="M291.64,204.08h-30.97s-4.24,0-4.24,0c-.12.75-.19,1.52-.2,2.31h31.43s4.17,0,4.17,0c0-.78-.08-1.55-.2-2.31ZM287.66,207.22h-27.26s-4.17,0-4.17,0c0,.79.08,1.56.2,2.32h4.24l26.73-.02h4.24c.12-.75.19-1.53.2-2.31h-4.17Z"></path><path class="cls-3" d="M291.85,206.82c0,.13,0,.27,0,.39h-31.43s-4.17,0-4.17,0c0-.13,0-.27,0-.39,0-.15,0-.29,0-.43h31.43s4.17,0,4.17,0c0,.15,0,.29,0,.43Z"></path><g><path class="cls-2" d="M234.86,202.63c-.17-1.16-.41-2.31-.72-3.42h0c.31,1.13.55,2.28.72,3.44.03.21.06.42.09.63-.02-.23-.05-.43-.08-.65Z"></path><path class="cls-1" d="M291.64,209.52c-.13.79-.3,1.57-.52,2.32-.27.89-.59,1.76-1,2.58h-25s0,0,0,0h-7.17c-.39-.83-.73-1.69-.99-2.58-.23-.75-.39-1.52-.52-2.31h4.24l26.73-.02h4.24Z"></path><path class="cls-1" d="M230.54,218.88c.65.12,1.27.19,1.87.19-4.6,9.69-14.48,16.42-25.89,16.42h0c-11.41,0-21.73-6.76-26.28-17.22l-1.41-3.23h25.37s0-16.37,0-16.37h-25.37s1.41-3.22,1.41-3.22c4.56-10.47,14.86-17.25,26.27-17.25h0c7.65,0,14.84,2.97,20.26,8.38,2.37,2.36,4.27,5.08,5.66,8.02-.61,0-1.24.06-1.89.19l-2.76.52.72,1.79c-1.18-2.67-2.87-5.14-5-7.26-4.54-4.53-10.56-7.02-16.98-7.02h0c-8.33,0-15.98,4.31-20.33,11.23l22.64-.02v25.61s-22.64,0-22.64,0c4.36,6.91,12,11.22,20.35,11.22h0c9.91,0,18.44-6.06,22.1-14.64l-.85,2.12,2.76.53Z"></path></g><path class="cls-1" d="M226.16,208.84l-4.62-.11c.11-4.53-1.56-8.84-4.69-12.11-3.14-3.28-7.35-5.15-11.87-5.25l.1-4.63c5.77.14,11.13,2.5,15.12,6.68,3.98,4.17,6.1,9.64,5.97,15.41Z"></path><path class="cls-2" d="M313.71,213.49c.07.32.15.62.23.93h0c-.09-.31-.17-.62-.24-.93Z"></path><path class="cls-1" d="M342.13,222.53l-.11,4.62c-5.77-.13-11.13-2.5-15.12-6.67-3.98-4.18-6.1-9.65-5.97-15.42l4.62.11c-.11,4.54,1.56,8.84,4.69,12.12,3.13,3.28,7.35,5.14,11.88,5.25Z"></path></g><path class="cls-5" d="M260.41,206.4h-4.17c0,.15,0,.29,0,.43,0,.13,0,.27,0,.39h4.17c0-.14,0-.26,0-.39s0-.29,0-.42h0ZM260.41,207.23c0-.14,0-.26,0-.39s0-.29,0-.42h0c.02-.81.11-1.56.27-2.32h-4.24c-.12.75-.19,1.52-.2,2.31,0,.15,0,.29,0,.43,0,.13,0,.27,0,.39,0,.79.08,1.56.2,2.32h4.24c-.15-.76-.25-1.52-.27-2.31h0ZM285.35,214.43c-1.33,1.97-3.16,3.57-5.3,4.63-1.81.89-3.86,1.39-6.02,1.4-2.16,0-4.2-.5-6.02-1.4-1.92-.94-3.59-2.33-4.88-4.03-.03-.04-.06-.07-.08-.11-.11-.14-.21-.28-.3-.41,0-.02-.02-.04-.04-.06h-4.78c.81,1.71,1.88,3.26,3.18,4.63h0c3.23,3.42,7.82,5.55,12.91,5.55s9.66-2.14,12.9-5.56h0c1.29-1.36,2.37-2.92,3.18-4.63h-4.77ZM291.84,206.39c0-.78-.08-1.55-.2-2.31h-4.23c.15.75.24,1.52.26,2.31,0,.15,0,.29,0,.43,0,.14,0,.27,0,.39-.02.79-.11,1.56-.27,2.31h4.24c.12-.75.19-1.53.2-2.31,0-.13,0-.27,0-.39,0-.15,0-.29,0-.43ZM286.96,194.56c-3.25-3.43-7.87-5.57-13.01-5.55-5.09,0-9.66,2.14-12.88,5.56-1.29,1.35-2.36,2.91-3.16,4.63h4.78c1.32-1.97,3.15-3.58,5.29-4.63,1.8-.9,3.84-1.39,5.99-1.4,2.17,0,4.23.49,6.06,1.39,2.16,1.05,3.99,2.65,5.33,4.63h4.78c-.8-1.72-1.87-3.27-3.18-4.63ZM234.86,202.63s0,0,0,.02c.03.21.06.42.09.63-.02-.23-.05-.43-.08-.65Z"></path><path class="cls-1" d="M343.88,198.6h25.37s-1.41-3.24-1.41-3.24c-4.56-10.46-14.86-17.23-26.26-17.23h-.03c-7.64,0-14.84,2.99-20.26,8.4-2.37,2.37-4.26,5.08-5.65,8.02h-13.46c-.36-.85-.71-1.69-1.08-2.52-.24-.52-.22-.85.11-1.29,1.01-1.38,1.98-2.78,2.94-4.18,1.37-2,1.18-4.25-.5-5.99-1.11-1.16-2.26-2.3-3.41-3.41-1.74-1.68-4-1.86-6-.49-1.41.97-2.81,1.93-4.18,2.94-.45.34-.79.32-1.3.09-1.99-.88-4.01-1.71-6.06-2.49-.53-.21-.76-.45-.84-1.01-.27-1.68-.58-3.35-.89-5.03-.43-2.37-2.16-3.84-4.59-3.88-1.55-.03-3.09-.02-4.64,0-2.52.02-4.25,1.48-4.7,3.96-.31,1.64-.59,3.29-.85,4.94-.09.53-.31.8-.85,1.01-2.04.78-4.06,1.61-6.06,2.49-.51.22-.85.25-1.3-.08-1.32-.98-2.68-1.9-4.02-2.84-2.19-1.52-4.41-1.33-6.29.51-1.07,1.07-2.14,2.13-3.21,3.21-1.76,1.78-1.95,4.06-.52,6.14.97,1.4,1.98,2.77,2.92,4.2.18.28.21.78.09,1.09-.36.89-.7,1.78-1.07,2.66h-13.31s-.08,0-.13,0c-.61,0-1.24.06-1.89.19l-2.76.52.72,1.79s0,.03.02.05c.57,1.29,1.03,2.63,1.35,4.01.05.18.09.37.13.56.04.18.08.37.12.56.04.19.07.37.11.56.06.36.11.75.16,1.12.02.19.04.37.06.57.04.36.06.73.08,1.08,0,.18.02.35.02.52,0,.23,0,.45,0,.68,0,.58-.02,1.14-.06,1.72-.03.38-.06.76-.11,1.13-.02.19-.05.37-.08.56-.05.37-.11.74-.18,1.1-.07.38-.15.76-.25,1.13-.04.19-.09.37-.15.56-.04.18-.1.36-.15.54-.16.55-.34,1.09-.54,1.63-.12.33-.25.65-.37.97-.02.02-.02.04-.03.05l-.85,2.12,2.76.53c.65.12,1.27.19,1.87.19h13.45c.35.83.71,1.66,1.07,2.49.25.55.24.91-.11,1.38-1,1.34-1.99,2.69-2.88,4.11-.49.8-.76,1.74-1.12,2.6.2,1.37.65,2.47,1.56,3.38,1.1,1.12,2.21,2.25,3.33,3.35,1.79,1.78,4.05,1.99,6.13.57,1.37-.96,2.75-1.9,4.09-2.9.48-.36.84-.36,1.38-.11,1.93.87,3.89,1.71,5.87,2.43.65.24.93.53,1.03,1.17.26,1.66.53,3.3.86,4.94.44,2.37,2.2,3.83,4.62,3.85,1.58.02,3.16.02,4.73,0,2.37-.03,4.1-1.46,4.56-3.79.34-1.74.59-3.49.96-5.22.07-.33.4-.7.72-.84,2.06-.9,4.14-1.76,6.23-2.56.32-.13.82-.11,1.09.07,1.45.95,2.85,1.98,4.29,2.97,1.99,1.36,4.24,1.17,5.98-.51,1.13-1.1,2.25-2.22,3.35-3.35,1.74-1.77,1.91-4,.5-6.06-.97-1.41-1.93-2.81-2.94-4.19-.31-.41-.32-.72-.1-1.2.38-.87.76-1.75,1.12-2.62h13.45c1.39,2.94,3.29,5.65,5.66,8.02,5.41,5.4,12.6,8.38,20.26,8.38h0c11.41,0,21.73-6.78,26.27-17.26l1.4-3.22-25.37.02v-16.37ZM234.14,199.21h7.73c-1.12.21-2.24.39-3.36.58-1.78.31-3.09,1.33-3.65,2.84.03.22.06.42.08.65-.03-.21-.06-.42-.09-.63-.17-1.16-.41-2.31-.72-3.44h0ZM234.13,214.46c.09-.32.17-.62.24-.94.08-.31.15-.6.22-.91,0-.03,0-.05,0-.07.06-.3.12-.6.17-.91.03-.23.07-.43.1-.66.58,1.57,1.89,2.56,3.83,2.89,1.11.19,2.23.39,3.34.58h-7.9ZM291.84,207.22c0,.78-.08,1.56-.2,2.31-.13.79-.3,1.57-.52,2.32-.27.89-.59,1.76-1,2.58-.81,1.71-1.88,3.26-3.18,4.63h0c-3.23,3.42-7.82,5.56-12.9,5.56s-9.67-2.13-12.91-5.55h0c-1.29-1.36-2.37-2.92-3.18-4.63-.39-.83-.73-1.69-.99-2.58-.23-.75-.39-1.52-.52-2.31-.12-.76-.19-1.53-.2-2.32,0-.13,0-.27,0-.39,0-.15,0-.29,0-.43,0-.79.08-1.56.2-2.31.12-.79.29-1.56.5-2.31.27-.9.59-1.76.99-2.58.8-1.72,1.86-3.27,3.16-4.63,3.21-3.42,7.79-5.55,12.88-5.56,5.14-.02,9.75,2.12,13.01,5.55,1.3,1.35,2.38,2.91,3.18,4.63.4.83.73,1.7.99,2.58.23.75.39,1.52.51,2.31.12.76.19,1.53.2,2.31,0,.15,0,.29,0,.43,0,.13,0,.27,0,.39ZM313.94,199.17c-.1.34-.18.67-.26,1.02-.07.28-.13.55-.19.84-.02.12-.05.24-.07.35-.07.39-.14.77-.2,1.15,0,.05-.02.11-.02.16-.58-1.54-1.9-2.58-3.7-2.9-1.16-.19-2.32-.4-3.49-.6h7.92ZM313.94,214.42h-7.66c1.07-.18,2.13-.36,3.2-.55,1.84-.32,3.18-1.37,3.75-2.92.04.27.08.53.13.79.05.28.1.55.16.83.06.31.13.62.21.93.07.31.15.62.24.93h0ZM361.9,219.57c-4.35,6.92-11.99,11.23-20.33,11.23h0c-6.42,0-12.45-2.5-16.99-7.02-2.11-2.11-3.79-4.55-4.97-7.19,0-.03,0-.05-.02-.07-.05-.12-.1-.23-.14-.34-.02-.04-.04-.07-.05-.11-.05-.12-.1-.24-.14-.36-.05-.12-.1-.24-.14-.36-.04-.07-.06-.14-.09-.21,0-.02-.02-.05-.03-.07-.07-.19-.13-.36-.19-.55-.06-.15-.11-.3-.15-.44-.05-.15-.1-.3-.14-.44-.06-.18-.11-.36-.16-.53-.05-.19-.1-.36-.14-.54-.28-1.11-.47-2.25-.58-3.39-.04-.39-.07-.79-.09-1.18-.02-.4-.03-.8-.03-1.2,0-.42,0-.84.03-1.26.02-.37.05-.74.08-1.1.04-.38.09-.76.15-1.14.02-.13.03-.26.06-.38.04-.29.09-.57.15-.85.15-.72.32-1.44.53-2.14.05-.18.1-.36.17-.54.23-.71.48-1.4.78-2.08,0-.03,0-.04.03-.06,1.18-2.74,2.88-5.26,5.06-7.44,4.54-4.54,10.56-7.04,16.99-7.04h.02c8.32,0,15.97,4.3,20.32,11.22h-22.65l.02,25.61h22.64Z"></path><path class="cls-4" d="M290.14,199.19h-27.44s-4.78,0-4.78,0c.8-1.72,1.86-3.27,3.16-4.63,3.21-3.42,7.79-5.55,12.88-5.56,5.14-.02,9.75,2.12,13.01,5.55,1.3,1.35,2.38,2.91,3.18,4.63Z"></path><path class="cls-4" d="M290.12,214.43c-.81,1.71-1.88,3.26-3.18,4.63h0c-3.23,3.42-7.82,5.56-12.9,5.56s-9.67-2.13-12.91-5.55h0c-1.29-1.36-2.37-2.92-3.18-4.63h27.41s4.77,0,4.77,0Z"></path><path class="cls-4" d="M291.85,206.82c0,.13,0,.27,0,.39,0,.78-.08,1.56-.2,2.31h-4.24l-26.73.02h-4.24c-.12-.76-.19-1.53-.2-2.32,0-.13,0-.27,0-.39,0-.15,0-.29,0-.43,0-.79.08-1.56.2-2.31h30.98s4.23,0,4.23,0c.12.76.19,1.53.2,2.31,0,.15,0,.29,0,.43Z"></path></g></svg>