<svg xmlns="http://www.w3.org/2000/svg" id="Layer_1" data-name="Layer 1" viewBox="0 0 500 500"><defs><style>      .cls-1, .cls-2 {        fill: #01008c;        stroke-width: 0px;      }      .cls-2 {        fill-rule: evenodd;      }    </style></defs><path class="cls-1" d="M246.82,304.57l-.03-.08c-.57-1.33-1.19-2.48-1.84-3.7l-.14-.26c-1-1.88-2.27-3.99-3.89-6.46-.28-.43-.52-.78-.72-1.06-.09-.13-.25-.2-.41-.2-.16,0-.31.09-.4.22-2.64,3.98-4.65,7.25-6.46,11.28l-.08.17c-.59,1.32-1.27,2.81-1.38,4.4-.15,2.13.65,4.29,2.2,5.92,1.77,1.87,3.71,2.74,6.08,2.74.26,0,.52-.01.79-.03,1.99-.15,3.93-1.1,5.33-2.6.69-.73,2.28-2.76,2.25-5.67-.01-1.66-.76-3.4-1.31-4.68ZM238.41,312.68c-.36.18-.74.27-1.13.27-1.34,0-2.51-1.04-2.55-2.28-.03-.95.45-1.81.92-2.64.1-.18.19-.34.28-.51.43-.82.82-1.53,1.27-2.27.42.66.86,1.38,1.29,2.19.06.12.13.24.19.36.46.84.98,1.8,1.01,2.7.03,1.03-.64,1.85-1.28,2.18Z"></path><path class="cls-1" d="M343.91,284.65v11.15c0,.96-.21,1.87-.58,2.7-1.06,2.35-3.46,3.99-6.25,3.99h-5.08c-2.92,0-5.48,1.83-6.45,4.52-.74,2.02-1.57,4-2.51,5.92-1.26,2.59-.78,5.65,1.29,7.68l3.6,3.52c1.2,1.17,1.86,2.67,1.98,4.21.15,1.88-.51,3.81-1.98,5.25l-14.12,13.81c-2.34,2.29-5.96,2.57-8.61.84-.37-.24-.72-.52-1.05-.84l-3.6-3.52c-2.07-2.02-5.2-2.49-7.85-1.26-1.96.92-3.98,1.74-6.05,2.46-2.75.95-4.62,3.46-4.62,6.32v4.97c0,3.69-3.06,6.69-6.83,6.69h-19.96c-3.78,0-6.83-2.99-6.83-6.69v-4.97c0-2.86-1.87-5.36-4.62-6.32-2.07-.72-4.09-1.54-6.05-2.46-2.64-1.23-5.78-.76-7.85,1.26l-3.6,3.52c-.34.33-.7.62-1.09.86-2.65,1.71-6.24,1.42-8.57-.86l-14.12-13.81c-1.42-1.39-2.08-3.24-1.99-5.05.08-1.6.75-3.18,1.99-4.4l3.6-3.52c2.07-2.02,2.55-5.09,1.29-7.68-.93-1.92-1.77-3.89-2.51-5.92-.98-2.69-3.53-4.52-6.45-4.52h-5.08c-3.77,0-6.83-2.99-6.83-6.69v-11.15h32.88c-.01.46-.03.92-.03,1.39,0,24.78,20.53,44.87,45.86,44.87s45.86-20.09,45.86-44.87c0-.46-.02-.93-.03-1.39h32.88Z"></path><path class="cls-1" d="M167.89,193.68c3.46,7.81,6.64,14.99,10.25,23.12,21.47-23.47,44.58-44.99,45.93-79.84,8.79,8.11,13.39,18.13,10.22,29.41-2.87,10.21-34.81,62.59-45.03,79.63-7.95,13.26-12.69,27.86-13.93,43.44-1.78,22.39,5.56,42.1,17.47,60.51,1.07,1.65,2.05,3.35,2.8,5.18-38.49-34.84-51.17-91.5-27.71-161.46Z"></path><path class="cls-1" d="M342.3,278.59h-16.09c-.42-3.09-1.23-6.18-2.24-9.2h0c-1.85-5.5-4.4-10.74-6.61-15.17-.17-.34-.33-.67-.5-1l-.26-.52c-2.34-4.68-4.79-9.01-7.33-13.27-1.43-2.41-2.9-4.78-4.4-7.19-.61-.98-1.23-1.97-1.85-2.97l-1.02-1.63c-7.41-11.88-16.79-25.27-28.67-40.92-2.06-2.7-3.85-4.95-5.34-6.7-.7-.82-1.82-1.29-3-1.26-1.18.03-2.27.54-2.92,1.38-19.51,25.19-34.3,45.93-47.69,71.49l-.57,1.09c-2.71,5.17-5.65,10.76-7.69,16.67-1.04,2.99-1.84,6.06-2.27,9.2h-16.07c.79-3.13,1.82-6.2,3-9.2,2.49-6.31,5.64-12.31,8.58-17.92l.73-1.4c17.16-32.77,36.12-59.36,61.15-91.66.83-1.08,2.24-1.74,3.75-1.77,1.51-.03,2.95.57,3.84,1.62,1.91,2.24,4.21,5.12,6.85,8.59,15.24,20.07,27.27,37.23,36.77,52.47l1.31,2.09c6.18,9.91,12.02,19.27,17.41,30.05l.33.66c2.51,5.03,5.47,10.95,7.87,17.26,1.14,3,2.16,6.09,2.93,9.2Z"></path><g><path class="cls-2" d="M233.97,287.47l11.66.06c.99-6.14,2.55-9.96,8.06-11.07,17.55-3.56,14.66,12.95,29.71,2.18,5.3-3.8,9.65-2.51,16.83-2.67v-13.04c-16.94-.47-14.85,1.62-16.71-10.23l-17.54-.07c-1.05,6.47,1.21,9.23-6.95,9.65-6.03.3-9.17.58-13.5,3.36-5.84,3.74-10.86,11.96-11.55,21.85h0Z"></path><path class="cls-2" d="M246.09,288.99v.17c0,.51-.4.93-.91.93h-10.85c-.49,0-.91-.42-.91-.93v-.17c0-.51.42-.91.91-.91h10.85c.51,0,.91.41.91.91Z"></path><path class="cls-2" d="M303.84,278.79h6.02v-18.65c-7.95-.05-8.93-.98-8.93,9.3,0,1.42-.16,4.58.09,5.81.46,2.21,1.31,2.82,2.82,3.54h0Z"></path><path class="cls-2" d="M271,248.9c-1.29,1.05-2.39.12-3.09,2.12,1.58,1.56,12.05,1.61,13.5,0-.68-1.89-1.59-1.04-3.09-2.12-.1-7.71-1.45-7.16,14.91-5.7.09,0,12.26,3.54,10.53-5.82-1.35-7.26-11.72-3.2-21.76-2.94-3.51.11-3.45-1.91-7.82-1.68-6.45.33,1.02,2.7-16.11.93-.95-.09-12.33-3.38-11.16,5.54.92,7.1,8.9,4.2,12.47,3.87,12.98-1.16,11.64-1.74,11.61,5.81h0Z"></path><path class="cls-2" d="M331.71,260.12h-21.34v18.68l21.34-.06c1.71-4.02,1.7-14.58,0-18.62h0Z"></path></g></svg>