<svg xmlns="http://www.w3.org/2000/svg" xmlns:xlink="http://www.w3.org/1999/xlink" id="Layer_1" data-name="Layer 1" viewBox="0 0 800 800"><defs><style>      .cls-1 {        fill: #01008c;      }      .cls-1, .cls-2 {        stroke-width: 0px;      }      .cls-2 {        fill: none;      }      .cls-3 {        clip-path: url(#clippath);      }    </style><clipPath id="clippath"><rect class="cls-2" x="195.03" y="195.2" width="409.93" height="409.6"></rect></clipPath></defs><g class="cls-3"><path class="cls-1" d="M578.97,301.81c-12.15,0-22.35,8.49-24.98,19.85h-134.9c-.86-9.55-3.85-18.49-8.48-26.37l77.1-55.18c4.52,3.98,10.45,6.41,16.93,6.41,14.15,0,25.66-11.51,25.66-25.66s-11.51-25.66-25.66-25.66-25.66,11.51-25.66,25.66c0,3.48.7,6.8,1.96,9.83l-77.1,55.18c-10.49-12.14-25.48-20.28-42.35-21.81v-18.21c11.36-2.64,19.85-12.83,19.85-24.99,0-14.15-11.51-25.66-25.66-25.66s-25.66,11.51-25.66,25.66c0,12.16,8.49,22.35,19.85,24.99v18.21c-15.82,1.44-29.97,8.68-40.33,19.58l-65.64-51.85c1.57-3.32,2.45-7.02,2.45-10.93,0-14.15-11.51-25.66-25.66-25.66s-25.66,11.51-25.66,25.66,11.51,25.66,25.66,25.66c6.05,0,11.61-2.11,16.01-5.63l65.64,51.84c-6.53,10-10.35,21.93-10.35,34.73,0,24.91,14.2,47.09,36.48,57.59v108.62c-11.94-2.82-24.99-2.48-33.82,11-9.18,14.03-5.7,32.77,7.92,42.65,12.21,8.86,21.39,16.55,29.49,23.33,24.15,20.22,37.45,31.36,83.09,33.98,1.78.1,3.55.15,5.31.15,22.77,0,44.19-8.44,60.79-24.08,18.3-17.23,28.83-41.54,28.9-66.74l-.5-63.7c0-7.19-2.81-13.97-7.92-19.09-5.11-5.11-11.89-7.93-19.07-7.94h-.02c-7.19,0-13.96,2.81-19.07,7.93-.76.76-1.46,1.55-2.11,2.37-.65-.81-1.34-1.59-2.09-2.34-5.11-5.13-11.89-7.95-19.09-7.95h-.02c-7.19,0-13.96,2.81-19.07,7.92-.76.76-1.47,1.55-2.13,2.38-.65-.82-1.35-1.61-2.11-2.36-5.1-5.11-11.88-7.93-19.07-7.94h-.02c-5.57,0-10.93,1.79-15.49,5.1l.05-43.07c10.24-4.74,19.02-12.08,25.53-21.43,6.35-9.11,10.14-19.58,11.13-30.57h134.89c2.64,11.36,12.83,19.86,24.98,19.86,14.15,0,25.66-11.52,25.66-25.66s-11.51-25.66-25.66-25.66ZM504.64,206.81c7.75,0,14.05,6.3,14.05,14.05s-6.31,14.05-14.05,14.05-14.05-6.3-14.05-14.05,6.3-14.05,14.05-14.05ZM220.69,234.91c-7.74,0-14.05-6.3-14.05-14.05s6.31-14.05,14.05-14.05,14.05,6.3,14.05,14.05-6.3,14.05-14.05,14.05ZM341.63,220.86c0-7.74,6.3-14.05,14.05-14.05s14.05,6.3,14.05,14.05-6.3,14.05-14.05,14.05-14.05-6.3-14.05-14.05ZM374.56,317.92c-5.11-5.11-11.89-7.93-19.07-7.94h-.02c-7.18,0-13.95,2.81-19.07,7.92-5.11,5.11-7.94,11.88-7.94,19.08v6.73c-2.89-4.84-4.48-10.44-4.48-16.24,0-17.48,14.22-31.7,31.7-31.7s31.7,14.22,31.7,31.7c0,6.09-1.74,11.93-4.9,16.92v-7.38c.01-7.19-2.8-13.97-7.91-19.09ZM387.18,439.48c2.97-2.98,6.77-4.63,10.69-4.63h.01c4.09,0,7.95,1.61,10.87,4.54,2.91,2.91,4.51,6.76,4.51,10.82v.02h0v.03c0,3.2,2.6,5.8,5.8,5.8h0c3.2,0,5.8-2.59,5.8-5.79h0c0-4.1,1.61-7.97,4.53-10.89,2.92-2.92,6.77-4.52,10.86-4.52h.01c4.09,0,7.95,1.61,10.88,4.54,2.9,2.91,4.5,6.74,4.5,10.8v.06c0,3.2,2.6,5.8,5.8,5.8,3.2,0,5.8-2.59,5.81-5.8v-.06c.01-4.07,1.61-7.91,4.52-10.82,2.92-2.92,6.78-4.52,10.86-4.52h.01c4.09,0,7.95,1.61,10.87,4.53,2.92,2.92,4.53,6.79,4.52,10.93l.51,63.69c-.06,21.97-9.27,43.21-25.25,58.26-15.54,14.64-35.95,22.02-57.47,20.79-41.8-2.4-53.33-12.05-76.3-31.29-8.24-6.91-17.59-14.73-30.13-23.83-8.6-6.24-10.81-18.05-5.02-26.9,2.52-3.85,5.56-7.2,12.87-7.2,3.77,0,8.67.89,15.22,3.07,1.77.59,3.71.29,5.22-.8,1.52-1.09,2.41-2.84,2.41-4.71l-.02-164.41c0-4.09,1.61-7.95,4.54-10.86s6.78-4.52,10.86-4.52h.01c4.09,0,7.95,1.61,10.86,4.53,2.92,2.92,4.53,6.79,4.53,10.88l-.12,113.69v.29c.02,3.2,2.61,5.78,5.8,5.78h.01c3.2,0,5.79-2.6,5.79-5.8v-.22c.04-4.11,1.79-8.21,4.83-11.27ZM382.44,372.17v-10.68c10.41-8.19,16.54-20.68,16.54-34.02,0-23.88-19.43-43.31-43.3-43.31s-43.31,19.43-43.31,43.31c0,13.11,5.97,25.48,16.09,33.67v10.76c-15.34-9.35-24.87-25.97-24.87-44.43,0-28.72,23.36-52.08,52.08-52.08s52.08,23.36,52.08,52.08c0,18.68-9.7,35.42-25.32,44.7ZM578.97,341.52c-7.74,0-14.05-6.3-14.05-14.05s6.3-14.05,14.05-14.05,14.05,6.3,14.05,14.05-6.3,14.05-14.05,14.05Z"></path></g></svg>